<svg width="295" height="124" viewBox="0 0 295 124" fill="none" xmlns="http://www.w3.org/2000/svg">
<g filter="url(#filter0_d_120_1151)">
<rect x="26" y="14.8633" width="234.447" height="62.7957" rx="11.25" fill="#0096C4" shape-rendering="crispEdges"/>
<rect x="41.0002" y="30.2161" width="32.7957" height="32.7957" rx="7.28794" fill="white"/>
<path d="M52.5596 51.5342C52.6068 51.934 52.9692 52.2197 53.3689 52.1724L59.8827 51.4025C60.2824 51.3553 60.5681 50.9929 60.5209 50.5932C60.4736 50.1935 60.1113 49.9078 59.7116 49.955L53.9215 50.6394L53.2372 44.8493C53.1899 44.4496 52.8276 44.1639 52.4279 44.2111C52.0281 44.2584 51.7424 44.6207 51.7897 45.0204L52.5596 51.5342ZM60.8341 40.6967L52.7111 50.9974L53.8556 51.9L61.9787 41.5992L60.8341 40.6967Z" fill="#0096C4"/>
<rect width="81.75" height="5.25" rx="2.625" transform="matrix(1 0 0 -1 81.0836 62.6589)" fill="white"/>
<rect width="56.25" height="5.25" rx="2.625" transform="matrix(1 0 0 -1 81.0836 49.9089)" fill="white"/>
<rect width="112.5" height="5.25" rx="2.625" transform="matrix(1 0 0 -1 81.0836 37.1589)" fill="white"/>
<rect x="200.872" y="45.8286" width="44.5759" height="16.8303" rx="7.28794" fill="#232323" fill-opacity="0.34"/>
<path d="M210.694 56.6259V52.5264H211.389V56.6259H210.694ZM208.992 54.924V54.2283H213.091V54.924H208.992ZM216.819 51.3835V57.7439H216.049V52.191H216.011L214.459 53.2221V52.4394L216.049 51.3835H216.819ZM218.819 57.7936C218.666 57.7936 218.534 57.7387 218.424 57.629C218.315 57.5193 218.26 57.3878 218.26 57.2346C218.26 57.0814 218.315 56.9499 218.424 56.8402C218.534 56.7304 218.666 56.6756 218.819 56.6756C218.972 56.6756 219.104 56.7304 219.213 56.8402C219.323 56.9499 219.378 57.0814 219.378 57.2346C219.378 57.336 219.352 57.4292 219.3 57.5141C219.251 57.599 219.183 57.6673 219.098 57.7191C219.016 57.7687 218.922 57.7936 218.819 57.7936ZM220.681 57.7439V57.1849L222.78 54.8867C223.027 54.6175 223.229 54.3836 223.389 54.1848C223.548 53.984 223.666 53.7956 223.743 53.6196C223.822 53.4415 223.861 53.2552 223.861 53.0606C223.861 52.837 223.807 52.6434 223.699 52.4798C223.594 52.3162 223.449 52.19 223.265 52.1009C223.08 52.0119 222.873 51.9674 222.643 51.9674C222.399 51.9674 222.186 52.0181 222.004 52.1196C221.824 52.2189 221.684 52.3587 221.584 52.5388C221.487 52.7189 221.438 52.9301 221.438 53.1724H220.706C220.706 52.7997 220.791 52.4726 220.963 52.191C221.135 51.9094 221.369 51.6899 221.665 51.5326C221.963 51.3752 222.298 51.2966 222.668 51.2966C223.041 51.2966 223.371 51.3752 223.659 51.5326C223.947 51.6899 224.172 51.9022 224.336 52.1692C224.5 52.4363 224.581 52.7334 224.581 53.0606C224.581 53.2945 224.539 53.5233 224.454 53.7469C224.371 53.9685 224.226 54.2159 224.019 54.4892C223.814 54.7604 223.53 55.0917 223.165 55.483L221.737 57.011V57.0607H224.693V57.7439H220.681ZM228.001 51.2966C228.262 51.2986 228.522 51.3483 228.783 51.4456C229.044 51.5429 229.282 51.7044 229.498 51.9301C229.713 52.1537 229.886 52.4591 230.016 52.8463C230.147 53.2335 230.212 53.719 230.212 54.3028C230.212 54.8681 230.158 55.3701 230.05 55.8091C229.945 56.2459 229.792 56.6145 229.591 56.9147C229.392 57.2149 229.15 57.4426 228.864 57.5979C228.58 57.7532 228.26 57.8309 227.901 57.8309C227.545 57.8309 227.227 57.7605 226.948 57.6197C226.67 57.4768 226.443 57.2791 226.265 57.0265C226.089 56.7718 225.976 56.4768 225.926 56.1414H226.684C226.752 56.4333 226.888 56.6745 227.091 56.865C227.296 57.0534 227.566 57.1476 227.901 57.1476C228.392 57.1476 228.779 56.9333 229.063 56.5047C229.349 56.0762 229.491 55.4706 229.491 54.6879H229.442C229.326 54.8618 229.188 55.012 229.029 55.1383C228.869 55.2645 228.692 55.3619 228.498 55.4302C228.303 55.4985 228.096 55.5327 227.877 55.5327C227.512 55.5327 227.178 55.4426 226.873 55.2625C226.571 55.0803 226.329 54.8308 226.147 54.514C225.967 54.1952 225.876 53.8308 225.876 53.4208C225.876 53.0316 225.963 52.6755 226.137 52.3525C226.313 52.0274 226.56 51.7686 226.876 51.5761C227.195 51.3835 227.57 51.2903 228.001 51.2966ZM228.001 51.9798C227.74 51.9798 227.505 52.045 227.296 52.1755C227.089 52.3038 226.924 52.4777 226.802 52.6972C226.682 52.9146 226.622 53.1558 226.622 53.4208C226.622 53.6858 226.68 53.927 226.796 54.1444C226.914 54.3598 227.074 54.5316 227.277 54.66C227.482 54.7863 227.715 54.8494 227.976 54.8494C228.173 54.8494 228.356 54.8111 228.526 54.7345C228.695 54.6558 228.843 54.5492 228.97 54.4146C229.098 54.278 229.198 54.1237 229.271 53.9519C229.343 53.778 229.38 53.5968 229.38 53.4084C229.38 53.16 229.32 52.927 229.2 52.7096C229.082 52.4922 228.918 52.3162 228.709 52.1817C228.502 52.0471 228.266 51.9798 228.001 51.9798ZM234.676 56.5513V56.2159C234.676 55.984 234.723 55.7718 234.818 55.5793C234.916 55.3846 235.057 55.2294 235.241 55.1134C235.427 54.9954 235.653 54.9364 235.918 54.9364C236.187 54.9364 236.413 54.9954 236.595 55.1134C236.777 55.2294 236.915 55.3846 237.008 55.5793C237.101 55.7718 237.148 55.984 237.148 56.2159V56.5513C237.148 56.7832 237.1 56.9965 237.005 57.1911C236.912 57.3836 236.773 57.5389 236.589 57.6569C236.406 57.7729 236.183 57.8309 235.918 57.8309C235.649 57.8309 235.422 57.7729 235.238 57.6569C235.053 57.5389 234.914 57.3836 234.818 57.1911C234.723 56.9965 234.676 56.7832 234.676 56.5513ZM235.309 56.2159V56.5513C235.309 56.7439 235.355 56.9168 235.446 57.07C235.537 57.2211 235.694 57.2967 235.918 57.2967C236.135 57.2967 236.288 57.2211 236.377 57.07C236.469 56.9168 236.514 56.7439 236.514 56.5513V56.2159C236.514 56.0234 236.471 55.8515 236.384 55.7004C236.297 55.5472 236.141 55.4706 235.918 55.4706C235.7 55.4706 235.544 55.5472 235.449 55.7004C235.356 55.8515 235.309 56.0234 235.309 56.2159ZM231.508 52.9115V52.5761C231.508 52.3442 231.555 52.132 231.651 51.9394C231.748 51.7448 231.889 51.5895 232.073 51.4736C232.259 51.3556 232.485 51.2966 232.75 51.2966C233.019 51.2966 233.245 51.3556 233.427 51.4736C233.609 51.5895 233.747 51.7448 233.84 51.9394C233.933 52.132 233.98 52.3442 233.98 52.5761V52.9115C233.98 53.1434 233.932 53.3566 233.837 53.5513C233.744 53.7438 233.605 53.8991 233.421 54.0171C233.239 54.1331 233.015 54.191 232.75 54.191C232.481 54.191 232.254 54.1331 232.07 54.0171C231.886 53.8991 231.746 53.7438 231.651 53.5513C231.555 53.3566 231.508 53.1434 231.508 52.9115ZM232.141 52.5761V52.9115C232.141 53.104 232.187 53.2769 232.278 53.4301C232.369 53.5813 232.526 53.6569 232.75 53.6569C232.967 53.6569 233.121 53.5813 233.21 53.4301C233.301 53.2769 233.346 53.104 233.346 52.9115V52.5761C233.346 52.3835 233.303 52.2117 233.216 52.0605C233.129 51.9073 232.974 51.8307 232.75 51.8307C232.533 51.8307 232.376 51.9073 232.281 52.0605C232.188 52.2117 232.141 52.3835 232.141 52.5761ZM231.744 57.7439L236.117 51.3835H236.825L232.452 57.7439H231.744Z" fill="white"/>
</g>
<defs>
<filter id="filter0_d_120_1151" x="0" y="0.863281" width="294.447" height="122.796" filterUnits="userSpaceOnUse" color-interpolation-filters="sRGB">
<feFlood flood-opacity="0" result="BackgroundImageFix"/>
<feColorMatrix in="SourceAlpha" type="matrix" values="0 0 0 0 0 0 0 0 0 0 0 0 0 0 0 0 0 0 127 0" result="hardAlpha"/>
<feOffset dx="4" dy="16"/>
<feGaussianBlur stdDeviation="15"/>
<feComposite in2="hardAlpha" operator="out"/>
<feColorMatrix type="matrix" values="0 0 0 0 0 0 0 0 0 0 0 0 0 0 0 0 0 0 0.25 0"/>
<feBlend mode="normal" in2="BackgroundImageFix" result="effect1_dropShadow_120_1151"/>
<feBlend mode="normal" in="SourceGraphic" in2="effect1_dropShadow_120_1151" result="shape"/>
</filter>
</defs>
</svg>
