<svg width="540" height="544" viewBox="0 0 540 544" fill="none" xmlns="http://www.w3.org/2000/svg">
<g filter="url(#filter0_d_120_1129)">
<rect x="29.25" y="16.9883" width="474.25" height="478" rx="20" fill="white"/>
<circle cx="223.756" cy="55.0788" r="10.5905" fill="#0096C4"/>
<path d="M213.166 44.4883H223.64V71.2555L213.166 77.7728V44.4883Z" fill="#0096C4"/>
<path d="M207.347 47.06L211.304 44.4883V78.6924L207.347 81.2641V47.06Z" fill="#0096C4"/>
<path d="M201.528 50.7841L205.485 48.2124V82.4165L201.528 84.9883V50.7841Z" fill="#0096C4"/>
<path d="M249.658 57.3452C252.559 57.3452 254.5 59.0244 254.5 61.7286C254.5 64.4327 252.559 66.1119 249.658 66.1119H246.322V71.7383H244.577V57.3452H249.658ZM249.397 64.4763C251.665 64.4763 252.668 63.5168 252.668 61.7286C252.668 59.9403 251.665 58.9808 249.397 58.9808H246.322V64.4763H249.397ZM266.502 70.4734C266.785 70.4734 267.112 70.4298 267.374 70.3644L267.265 71.7383C266.96 71.8473 266.502 71.9564 265.956 71.9564C264.888 71.9564 264.19 71.5638 263.994 70.3426C263.296 71.3676 261.878 71.9564 260.483 71.9564C258.433 71.9564 256.775 70.9968 256.775 69.0341C256.775 67.3986 258.215 66.1119 261.028 65.6321L263.928 65.1524V64.5417C263.928 63.1024 263.012 62.1429 261.377 62.1429C259.937 62.1429 258.847 62.8407 258.258 64.2146L256.972 63.2769C257.539 61.6631 259.261 60.6164 261.377 60.6164C263.863 60.6164 265.673 61.794 265.673 64.3237V69.6884C265.673 70.2117 265.891 70.4734 266.502 70.4734ZM260.57 70.4298C262.315 70.4298 263.928 69.5139 263.928 68.0746V66.5699L261.486 67.0278C259.567 67.3767 258.585 68.0092 258.585 69.0341C258.585 69.9501 259.327 70.4298 260.57 70.4298ZM278.542 60.8344L273.417 73.5701C272.567 75.7073 271.585 76.4269 269.971 76.4269C268.881 76.4269 268.183 76.1652 267.573 75.511L268.183 74.0281C268.685 74.7259 269.339 74.9004 269.95 74.9004C270.713 74.9004 271.389 74.5733 271.934 73.134L272.501 71.7165L267.943 60.8344H269.928L272.654 67.9437L273.33 69.8846L274.115 67.7257L276.666 60.8344H278.542ZM284.375 71.9564C282.368 71.9564 280.515 71.1713 279.686 69.4921L281.103 68.5107C281.627 69.841 282.979 70.4298 284.549 70.4298C286.337 70.4298 287.188 69.7102 287.188 68.8161C287.188 68.0092 286.512 67.5294 284.331 67.1369C281.234 66.5699 280.1 65.7194 280.1 63.8875C280.1 62.1211 281.736 60.6164 284.396 60.6164C286.73 60.6164 288.104 61.4451 288.714 63.2333L287.231 64.1056C286.752 62.6663 285.77 62.1429 284.396 62.1429C282.935 62.1429 281.845 62.928 281.845 63.7349C281.845 64.6726 282.565 65.1524 284.789 65.5231C287.842 66.0247 288.932 66.9406 288.932 68.7288C288.932 70.6261 287.166 71.9564 284.375 71.9564ZM293.825 55.8187V68.8161C293.825 69.9282 294.108 70.2772 295.002 70.2772C295.591 70.2772 295.962 70.2117 296.594 69.9719L296.311 71.6511C295.853 71.8473 295.264 71.9564 294.697 71.9564C292.931 71.9564 292.08 71.0186 292.08 69.0341V55.8187H293.825ZM307.774 70.4734C308.058 70.4734 308.385 70.4298 308.647 70.3644L308.538 71.7383C308.232 71.8473 307.774 71.9564 307.229 71.9564C306.161 71.9564 305.463 71.5638 305.266 70.3426C304.569 71.3676 303.151 71.9564 301.755 71.9564C299.706 71.9564 298.048 70.9968 298.048 69.0341C298.048 67.3986 299.487 66.1119 302.301 65.6321L305.201 65.1524V64.5417C305.201 63.1024 304.285 62.1429 302.65 62.1429C301.21 62.1429 300.12 62.8407 299.531 64.2146L298.244 63.2769C298.811 61.6631 300.534 60.6164 302.65 60.6164C305.136 60.6164 306.946 61.794 306.946 64.3237V69.6884C306.946 70.2117 307.164 70.4734 307.774 70.4734ZM301.843 70.4298C303.587 70.4298 305.201 69.5139 305.201 68.0746V66.5699L302.759 67.0278C300.84 67.3767 299.858 68.0092 299.858 69.0341C299.858 69.9501 300.6 70.4298 301.843 70.4298ZM316.822 69.5139L317.432 70.975C316.756 71.5856 315.819 71.9564 314.619 71.9564C313.005 71.9564 311.61 71.1495 311.588 69.0341V62.3392H309.407V60.8344H311.588V58.2175L313.333 57.7377V60.8344H317.367V62.3392H313.333V68.7288C313.333 69.7974 314.009 70.3208 314.968 70.3208C315.753 70.3208 316.32 70.0155 316.822 69.5139ZM329.251 65.7194C329.251 66.2209 329.207 66.6353 329.164 66.9406H320.942C321.16 69.1432 322.491 70.4298 324.497 70.4298C326.089 70.4298 327.179 69.8628 327.572 68.8161L329.033 69.5793C328.204 71.0622 326.852 71.9564 324.497 71.9564C321.204 71.9564 319.219 69.8192 319.219 66.2864C319.219 62.7535 321.073 60.6164 324.366 60.6164C327.528 60.6164 329.251 62.9062 329.251 65.7194ZM324.366 62.1429C322.425 62.1429 321.226 63.3423 320.964 65.3922H327.572C327.332 63.3859 326.22 62.1429 324.366 62.1429Z" fill="#0096C4"/>
<rect width="153.75" height="10.5" rx="5.25" transform="matrix(1 0 0 -1 71.75 125.488)" fill="#DDDDDD"/>
<rect x="71.75" y="140.488" width="387" height="33.75" rx="16.875" fill="#E7E7E7"/>
<rect width="103.5" height="10.5" rx="5.25" transform="matrix(1 0 0 -1 71.75 199.738)" fill="#DDDDDD"/>
<rect x="71.75" y="214.738" width="387" height="33.75" rx="16.875" fill="#E7E7E7"/>
<rect width="134.25" height="10.5" rx="5.25" transform="matrix(1 0 0 -1 71.75 273.988)" fill="#DDDDDD"/>
<rect x="71.75" y="288.988" width="387" height="33.75" rx="16.875" fill="#E7E7E7"/>
<rect width="153.75" height="10.5" rx="5.25" transform="matrix(1 0 0 -1 71.75 348.238)" fill="#DDDDDD"/>
<rect x="71.75" y="363.238" width="387" height="33.75" rx="16.875" fill="#E7E7E7"/>
<rect x="192.875" y="426.988" width="147" height="40.5" rx="20.25" fill="#0096C4"/>
<path d="M242.78 442.188C244.625 442.188 245.885 442.773 246.89 444.093L245.465 445.488C244.955 444.423 244.13 443.883 242.795 443.883C241.55 443.883 240.92 444.408 240.92 445.113C240.92 445.773 241.46 446.133 243.2 446.448C245.87 446.943 246.875 447.768 246.875 449.418C246.875 451.278 245.18 452.388 242.81 452.388C240.56 452.388 239.285 451.743 238.445 450.543L239.675 449.073C240.455 450.363 241.4 450.693 242.735 450.693C244.01 450.693 244.7 450.288 244.7 449.538C244.7 448.998 244.175 448.683 242.54 448.353C239.78 447.798 238.73 446.958 238.73 445.308C238.73 443.553 240.215 442.188 242.78 442.188ZM249.585 443.658C248.73 443.658 248.31 443.298 248.31 442.563C248.31 441.828 248.73 441.453 249.585 441.453C250.44 441.453 250.86 441.828 250.86 442.563C250.86 443.298 250.44 443.658 249.585 443.658ZM250.605 444.738V452.238H248.55V444.738H250.605ZM257.343 450.828C258.963 450.828 259.908 451.563 259.908 452.913C259.908 454.548 258.228 455.463 255.873 455.463C253.293 455.463 252.183 454.713 252.183 453.618C252.183 452.958 252.633 452.418 253.548 452.193C252.933 451.923 252.438 451.428 252.438 450.693C252.438 449.943 252.918 449.433 253.638 449.178C252.858 448.743 252.453 448.038 252.453 447.138C252.453 445.563 253.773 444.588 255.903 444.588C256.458 444.588 256.968 444.648 257.403 444.783C257.643 443.673 258.333 442.893 259.683 442.953L259.953 444.423C259.008 444.333 258.423 444.633 258.198 445.128C258.933 445.563 259.338 446.253 259.338 447.138C259.338 448.698 258.033 449.673 255.903 449.673C255.408 449.673 254.958 449.628 254.553 449.538C254.118 449.643 253.953 449.868 253.953 450.213C253.953 450.618 254.283 450.828 254.808 450.828H257.343ZM255.903 445.878C255.108 445.878 254.523 446.373 254.523 447.123C254.523 447.888 255.108 448.383 255.903 448.383C256.698 448.383 257.268 447.888 257.268 447.123C257.268 446.373 256.698 445.878 255.903 445.878ZM256.038 454.053C257.493 454.053 258.228 453.633 258.228 453.123C258.228 452.733 257.958 452.493 257.103 452.493H255.063C254.193 452.493 253.818 452.733 253.818 453.168C253.818 453.708 254.508 454.053 256.038 454.053ZM265.647 444.588C267.207 444.588 268.347 445.503 268.347 447.318V452.238H266.292V447.918C266.292 446.628 265.737 446.208 264.957 446.208C264.087 446.208 263.232 446.778 263.232 448.278V452.238H261.177V444.738H263.022L263.097 446.073C263.592 445.068 264.522 444.588 265.647 444.588ZM283.569 442.338V448.338C283.569 451.038 282.099 452.388 279.339 452.388C276.579 452.388 275.109 451.038 275.109 448.338V442.338H277.179V448.248C277.179 449.913 277.884 450.693 279.339 450.693C280.794 450.693 281.484 449.913 281.484 448.248V442.338H283.569ZM290.137 444.588C292.132 444.588 293.347 446.028 293.347 448.473C293.347 450.933 292.117 452.388 290.137 452.388C289.027 452.388 288.217 451.833 287.782 450.993V455.388H285.727V444.738H287.542L287.617 446.193C288.037 445.233 288.937 444.588 290.137 444.588ZM289.522 450.813C290.617 450.813 291.277 450.018 291.277 448.488C291.277 446.958 290.617 446.163 289.522 446.163C288.457 446.163 287.782 446.958 287.782 448.413V448.563C287.782 449.988 288.442 450.813 289.522 450.813Z" fill="white"/>
<rect x="29.25" y="16.9883" width="474.25" height="478" rx="20" stroke="#AEDB04" stroke-width="5"/>
</g>
<defs>
<filter id="filter0_d_120_1129" x="0.75" y="0.488281" width="539.25" height="543" filterUnits="userSpaceOnUse" color-interpolation-filters="sRGB">
<feFlood flood-opacity="0" result="BackgroundImageFix"/>
<feColorMatrix in="SourceAlpha" type="matrix" values="0 0 0 0 0 0 0 0 0 0 0 0 0 0 0 0 0 0 127 0" result="hardAlpha"/>
<feOffset dx="4" dy="16"/>
<feGaussianBlur stdDeviation="15"/>
<feComposite in2="hardAlpha" operator="out"/>
<feColorMatrix type="matrix" values="0 0 0 0 0 0 0 0 0 0 0 0 0 0 0 0 0 0 0.25 0"/>
<feBlend mode="normal" in2="BackgroundImageFix" result="effect1_dropShadow_120_1129"/>
<feBlend mode="normal" in="SourceGraphic" in2="effect1_dropShadow_120_1129" result="shape"/>
</filter>
</defs>
</svg>
