<svg width="253" height="137" viewBox="0 0 253 137" fill="none" xmlns="http://www.w3.org/2000/svg">
<g filter="url(#filter0_d_120_1163)">
<rect x="26" y="14.6133" width="192.75" height="76.125" rx="11.25" fill="#0096C4" shape-rendering="crispEdges"/>
<rect x="56" y="29.6133" width="61.875" height="7.875" rx="3.9375" fill="white"/>
<rect x="56" y="48.7383" width="42.75" height="7.875" rx="3.9375" fill="white"/>
<rect x="56" y="67.8633" width="85.5" height="7.875" rx="3.9375" fill="white"/>
<path d="M176.046 43.9092L172.34 47.6133L176.046 51.3173C176.15 51.4219 176.233 51.546 176.29 51.6825C176.347 51.8191 176.376 51.9655 176.376 52.1133C176.376 52.2611 176.347 52.4075 176.29 52.544C176.233 52.6806 176.15 52.8047 176.046 52.9092C175.941 53.0137 175.817 53.0967 175.681 53.1532C175.544 53.2098 175.398 53.2389 175.25 53.2389C175.102 53.2389 174.956 53.2098 174.819 53.1532C174.683 53.0967 174.559 53.0137 174.454 52.9092L170.75 49.2038L167.046 52.9092C166.941 53.0137 166.817 53.0967 166.681 53.1532C166.544 53.2098 166.398 53.2389 166.25 53.2389C166.102 53.2389 165.956 53.2098 165.819 53.1532C165.683 53.0967 165.559 53.0137 165.454 52.9092C165.35 52.8047 165.267 52.6806 165.21 52.544C165.153 52.4075 165.124 52.2611 165.124 52.1133C165.124 51.9655 165.153 51.8191 165.21 51.6825C165.267 51.546 165.35 51.4219 165.454 51.3173L169.16 47.6133L165.454 43.9092C165.243 43.6981 165.124 43.4118 165.124 43.1133C165.124 42.8147 165.243 42.5284 165.454 42.3173C165.665 42.1062 165.951 41.9877 166.25 41.9877C166.549 41.9877 166.835 42.1062 167.046 42.3173L170.75 46.0228L174.454 42.3173C174.559 42.2128 174.683 42.1299 174.819 42.0733C174.956 42.0168 175.102 41.9877 175.25 41.9877C175.398 41.9877 175.544 42.0168 175.681 42.0733C175.817 42.1299 175.941 42.2128 176.046 42.3173C176.15 42.4219 176.233 42.546 176.29 42.6825C176.347 42.8191 176.376 42.9655 176.376 43.1133C176.376 43.2611 176.347 43.4075 176.29 43.544C176.233 43.6806 176.15 43.8047 176.046 43.9092ZM185.375 47.6133C185.375 50.5058 184.517 53.3334 182.91 55.7385C181.303 58.1436 179.019 60.0181 176.347 61.125C173.674 62.232 170.734 62.5216 167.897 61.9573C165.06 61.393 162.454 60.0001 160.409 57.9547C158.363 55.9094 156.97 53.3034 156.406 50.4665C155.842 47.6295 156.131 44.6889 157.238 42.0165C158.345 39.3442 160.22 37.0601 162.625 35.453C165.03 33.846 167.857 32.9883 170.75 32.9883C174.628 32.9924 178.345 34.5345 181.087 37.2764C183.829 40.0182 185.371 43.7357 185.375 47.6133ZM183.125 47.6133C183.125 45.1657 182.399 42.7732 181.039 40.7381C179.68 38.703 177.747 37.1169 175.486 36.1803C173.224 35.2436 170.736 34.9986 168.336 35.4761C165.935 35.9536 163.73 37.1322 162 38.8628C160.269 40.5935 159.09 42.7985 158.613 45.199C158.135 47.5996 158.38 50.0878 159.317 52.349C160.254 54.6102 161.84 56.5429 163.875 57.9027C165.91 59.2625 168.302 59.9883 170.75 59.9883C174.031 59.9846 177.176 58.6796 179.496 56.3596C181.816 54.0397 183.121 50.8942 183.125 47.6133Z" fill="white"/>
</g>
<defs>
<filter id="filter0_d_120_1163" x="0" y="0.613281" width="252.75" height="136.125" filterUnits="userSpaceOnUse" color-interpolation-filters="sRGB">
<feFlood flood-opacity="0" result="BackgroundImageFix"/>
<feColorMatrix in="SourceAlpha" type="matrix" values="0 0 0 0 0 0 0 0 0 0 0 0 0 0 0 0 0 0 127 0" result="hardAlpha"/>
<feOffset dx="4" dy="16"/>
<feGaussianBlur stdDeviation="15"/>
<feComposite in2="hardAlpha" operator="out"/>
<feColorMatrix type="matrix" values="0 0 0 0 0 0 0 0 0 0 0 0 0 0 0 0 0 0 0.25 0"/>
<feBlend mode="normal" in2="BackgroundImageFix" result="effect1_dropShadow_120_1163"/>
<feBlend mode="normal" in="SourceGraphic" in2="effect1_dropShadow_120_1163" result="shape"/>
</filter>
</defs>
</svg>
