<svg width="260" height="314" viewBox="0 0 260 314" fill="none" xmlns="http://www.w3.org/2000/svg">
<g filter="url(#filter0_d_11_735)">
<rect x="26.4879" y="14.5" width="199.5" height="252.75" rx="11.25" fill="#00A8DC" shape-rendering="crispEdges"/>
<rect x="30.2379" y="18.25" width="192" height="245.25" rx="10" fill="white"/>
<path d="M192.238 114.25C192.238 150.701 162.689 180.25 126.238 180.25C89.7871 180.25 60.2379 150.701 60.2379 114.25C60.2379 77.7992 89.7871 48.25 126.238 48.25C162.689 48.25 192.238 77.7992 192.238 114.25ZM74.7464 114.25C74.7464 142.688 97.7999 165.741 126.238 165.741C154.676 165.741 177.729 142.688 177.729 114.25C177.729 85.812 154.676 62.7585 126.238 62.7585C97.7999 62.7585 74.7464 85.812 74.7464 114.25Z" fill="#E0E0E0"/>
<path d="M102.025 167.706C100.358 171.387 95.9966 173.053 92.5231 170.989C80.8105 164.03 71.4823 153.578 65.9087 141.016C60.3352 128.453 58.8465 114.523 61.547 101.169C62.3478 97.2091 66.5101 95.0937 70.3575 96.3276C74.2048 97.5616 76.2674 101.68 75.5921 105.664C73.9132 115.566 75.1666 125.803 79.2832 135.082C83.3997 144.36 90.1479 152.159 98.6164 157.56C102.023 159.733 103.692 164.026 102.025 167.706Z" fill="#AEDB04"/>
<path d="M126.238 55.6415C126.238 51.5593 129.557 48.2072 133.614 48.6635C141.5 49.5503 149.181 51.8544 156.282 55.485C165.584 60.2404 173.623 67.1357 179.74 75.6038C185.857 84.072 189.876 93.8712 191.468 104.196C193.059 114.52 192.177 125.075 188.894 134.992C185.611 144.909 180.021 153.905 172.583 161.24C165.146 168.576 156.073 174.041 146.112 177.187C136.151 180.332 125.585 181.068 115.283 179.335C107.418 178.011 99.8793 175.276 93.0222 171.283C89.4947 169.228 88.831 164.558 91.2668 161.282C93.7026 158.006 98.3138 157.379 101.906 159.318C106.834 161.979 112.181 163.821 117.737 164.757C125.731 166.102 133.93 165.531 141.66 163.09C149.391 160.649 156.431 156.408 162.203 150.715C167.974 145.023 172.312 138.042 174.86 130.346C177.407 122.65 178.092 114.459 176.857 106.448C175.622 98.4358 172.503 90.8315 167.756 84.26C163.01 77.6886 156.771 72.3378 149.553 68.6475C144.536 66.0828 139.146 64.371 133.604 63.5655C129.564 62.9784 126.238 59.7238 126.238 55.6415Z" fill="#00A8DC"/>
<rect x="60.2379" y="192.222" width="9" height="9.55693" rx="3" fill="#00A8DC"/>
<path d="M84.8019 200.5H83.7849L83.2179 198.943H80.7249L80.1579 200.5H79.1679L81.4089 194.56H82.5609L84.8019 200.5ZM80.9949 198.16H82.9479L81.9759 195.388L80.9949 198.16ZM87.5676 195.91C87.9276 195.91 88.2336 195.964 88.4856 196.072C88.7436 196.174 88.9596 196.321 89.1336 196.513C89.3076 196.705 89.4396 196.924 89.5296 197.17L88.6206 197.53C88.5426 197.254 88.4166 197.044 88.2426 196.9C88.0746 196.75 87.8526 196.675 87.5766 196.675C87.3066 196.675 87.0756 196.738 86.8836 196.864C86.6916 196.984 86.5446 197.161 86.4426 197.395C86.3466 197.629 86.2986 197.917 86.2986 198.259C86.2986 198.595 86.3496 198.88 86.4516 199.114C86.5536 199.348 86.7006 199.525 86.8926 199.645C87.0846 199.765 87.3126 199.825 87.5766 199.825C87.7806 199.825 87.9576 199.792 88.1076 199.726C88.2576 199.654 88.3806 199.555 88.4766 199.429C88.5786 199.297 88.6476 199.138 88.6836 198.952L89.5566 199.249C89.4726 199.519 89.3406 199.756 89.1606 199.96C88.9866 200.158 88.7676 200.314 88.5036 200.428C88.2396 200.536 87.9366 200.59 87.5946 200.59C87.1506 200.59 86.7576 200.497 86.4156 200.311C86.0736 200.125 85.8066 199.858 85.6146 199.51C85.4286 199.156 85.3356 198.736 85.3356 198.25C85.3356 197.764 85.4286 197.347 85.6146 196.999C85.8066 196.645 86.0706 196.375 86.4066 196.189C86.7486 196.003 87.1356 195.91 87.5676 195.91ZM91.9913 194.677V199.15C91.9913 199.372 92.0483 199.534 92.1623 199.636C92.2823 199.738 92.4413 199.789 92.6393 199.789C92.8013 199.789 92.9423 199.765 93.0623 199.717C93.1823 199.663 93.2933 199.591 93.3953 199.501L93.6113 200.203C93.4733 200.323 93.3023 200.419 93.0983 200.491C92.9003 200.557 92.6783 200.59 92.4323 200.59C92.1743 200.59 91.9373 200.548 91.7213 200.464C91.5053 200.38 91.3373 200.245 91.2173 200.059C91.0973 199.867 91.0343 199.618 91.0283 199.312V194.947L91.9913 194.677ZM93.5393 196V196.756H90.1643V196H93.5393ZM94.9777 195.244C94.7677 195.244 94.6057 195.193 94.4917 195.091C94.3837 194.983 94.3297 194.833 94.3297 194.641C94.3297 194.449 94.3837 194.302 94.4917 194.2C94.6057 194.098 94.7677 194.047 94.9777 194.047C95.1817 194.047 95.3377 194.098 95.4457 194.2C95.5597 194.302 95.6167 194.449 95.6167 194.641C95.6167 194.833 95.5597 194.983 95.4457 195.091C95.3377 195.193 95.1817 195.244 94.9777 195.244ZM95.4547 196V200.5H94.4917V196H95.4547ZM99.9224 196H100.93L99.1394 200.5H98.0864L96.2864 196H97.3394L98.6174 199.663L99.9224 196ZM103.705 200.59C103.255 200.59 102.859 200.497 102.517 200.311C102.175 200.125 101.908 199.858 101.716 199.51C101.53 199.156 101.437 198.736 101.437 198.25C101.437 197.764 101.53 197.347 101.716 196.999C101.908 196.645 102.172 196.375 102.508 196.189C102.844 196.003 103.225 195.91 103.651 195.91C104.089 195.91 104.461 196 104.767 196.18C105.073 196.36 105.307 196.606 105.469 196.918C105.631 197.23 105.712 197.584 105.712 197.98C105.712 198.088 105.709 198.19 105.703 198.286C105.697 198.382 105.688 198.466 105.676 198.538H102.058V197.8H105.253L104.776 197.944C104.776 197.536 104.674 197.224 104.47 197.008C104.266 196.786 103.987 196.675 103.633 196.675C103.375 196.675 103.15 196.735 102.958 196.855C102.766 196.975 102.619 197.155 102.517 197.395C102.415 197.629 102.364 197.917 102.364 198.259C102.364 198.595 102.418 198.88 102.526 199.114C102.634 199.348 102.787 199.525 102.985 199.645C103.183 199.765 103.417 199.825 103.687 199.825C103.987 199.825 104.23 199.768 104.416 199.654C104.602 199.54 104.749 199.381 104.857 199.177L105.622 199.537C105.514 199.753 105.367 199.942 105.181 200.104C105.001 200.26 104.785 200.38 104.533 200.464C104.281 200.548 104.005 200.59 103.705 200.59ZM114.724 194.56V198.223C114.724 199.009 114.517 199.6 114.103 199.996C113.689 200.392 113.086 200.59 112.294 200.59C111.514 200.59 110.914 200.392 110.494 199.996C110.08 199.6 109.873 199.009 109.873 198.223V194.56H110.836V198.106C110.836 198.664 110.956 199.078 111.196 199.348C111.436 199.618 111.802 199.753 112.294 199.753C112.792 199.753 113.161 199.618 113.401 199.348C113.641 199.078 113.761 198.664 113.761 198.106V194.56H114.724ZM117.884 200.59C117.434 200.59 117.023 200.503 116.651 200.329C116.279 200.155 115.985 199.909 115.769 199.591L116.435 199.015C116.567 199.261 116.756 199.459 117.002 199.609C117.254 199.753 117.554 199.825 117.902 199.825C118.178 199.825 118.397 199.777 118.559 199.681C118.721 199.585 118.802 199.45 118.802 199.276C118.802 199.162 118.763 199.063 118.685 198.979C118.613 198.889 118.472 198.82 118.262 198.772L117.317 198.574C116.837 198.478 116.495 198.325 116.291 198.115C116.087 197.899 115.985 197.626 115.985 197.296C115.985 197.05 116.057 196.822 116.201 196.612C116.345 196.402 116.555 196.234 116.831 196.108C117.113 195.976 117.449 195.91 117.839 195.91C118.289 195.91 118.673 195.991 118.991 196.153C119.309 196.309 119.552 196.534 119.72 196.828L119.054 197.386C118.94 197.146 118.772 196.969 118.55 196.855C118.328 196.735 118.097 196.675 117.857 196.675C117.665 196.675 117.5 196.699 117.362 196.747C117.224 196.795 117.119 196.861 117.047 196.945C116.975 197.029 116.939 197.128 116.939 197.242C116.939 197.362 116.984 197.467 117.074 197.557C117.164 197.647 117.326 197.716 117.56 197.764L118.586 197.98C119.018 198.064 119.321 198.208 119.495 198.412C119.675 198.61 119.765 198.853 119.765 199.141C119.765 199.429 119.69 199.684 119.54 199.906C119.39 200.122 119.174 200.29 118.892 200.41C118.61 200.53 118.274 200.59 117.884 200.59ZM122.909 200.59C122.459 200.59 122.063 200.497 121.721 200.311C121.379 200.125 121.112 199.858 120.92 199.51C120.734 199.156 120.641 198.736 120.641 198.25C120.641 197.764 120.734 197.347 120.92 196.999C121.112 196.645 121.376 196.375 121.712 196.189C122.048 196.003 122.429 195.91 122.855 195.91C123.293 195.91 123.665 196 123.971 196.18C124.277 196.36 124.511 196.606 124.673 196.918C124.835 197.23 124.916 197.584 124.916 197.98C124.916 198.088 124.913 198.19 124.907 198.286C124.901 198.382 124.892 198.466 124.88 198.538H121.262V197.8H124.457L123.98 197.944C123.98 197.536 123.878 197.224 123.674 197.008C123.47 196.786 123.191 196.675 122.837 196.675C122.579 196.675 122.354 196.735 122.162 196.855C121.97 196.975 121.823 197.155 121.721 197.395C121.619 197.629 121.568 197.917 121.568 198.259C121.568 198.595 121.622 198.88 121.73 199.114C121.838 199.348 121.991 199.525 122.189 199.645C122.387 199.765 122.621 199.825 122.891 199.825C123.191 199.825 123.434 199.768 123.62 199.654C123.806 199.54 123.953 199.381 124.061 199.177L124.826 199.537C124.718 199.753 124.571 199.942 124.385 200.104C124.205 200.26 123.989 200.38 123.737 200.464C123.485 200.548 123.209 200.59 122.909 200.59ZM126.132 200.5V196H126.951L127.041 196.81C127.161 196.516 127.338 196.294 127.572 196.144C127.812 195.988 128.106 195.91 128.454 195.91C128.544 195.91 128.634 195.919 128.724 195.937C128.814 195.949 128.889 195.97 128.949 196L128.814 196.846C128.748 196.822 128.673 196.804 128.589 196.792C128.511 196.774 128.403 196.765 128.265 196.765C128.079 196.765 127.896 196.816 127.716 196.918C127.536 197.014 127.386 197.161 127.266 197.359C127.152 197.557 127.095 197.809 127.095 198.115V200.5H126.132ZM131.419 200.59C130.969 200.59 130.558 200.503 130.186 200.329C129.814 200.155 129.52 199.909 129.304 199.591L129.97 199.015C130.102 199.261 130.291 199.459 130.537 199.609C130.789 199.753 131.089 199.825 131.437 199.825C131.713 199.825 131.932 199.777 132.094 199.681C132.256 199.585 132.337 199.45 132.337 199.276C132.337 199.162 132.298 199.063 132.22 198.979C132.148 198.889 132.007 198.82 131.797 198.772L130.852 198.574C130.372 198.478 130.03 198.325 129.826 198.115C129.622 197.899 129.52 197.626 129.52 197.296C129.52 197.05 129.592 196.822 129.736 196.612C129.88 196.402 130.09 196.234 130.366 196.108C130.648 195.976 130.984 195.91 131.374 195.91C131.824 195.91 132.208 195.991 132.526 196.153C132.844 196.309 133.087 196.534 133.255 196.828L132.589 197.386C132.475 197.146 132.307 196.969 132.085 196.855C131.863 196.735 131.632 196.675 131.392 196.675C131.2 196.675 131.035 196.699 130.897 196.747C130.759 196.795 130.654 196.861 130.582 196.945C130.51 197.029 130.474 197.128 130.474 197.242C130.474 197.362 130.519 197.467 130.609 197.557C130.699 197.647 130.861 197.716 131.095 197.764L132.121 197.98C132.553 198.064 132.856 198.208 133.03 198.412C133.21 198.61 133.3 198.853 133.3 199.141C133.3 199.429 133.225 199.684 133.075 199.906C132.925 200.122 132.709 200.29 132.427 200.41C132.145 200.53 131.809 200.59 131.419 200.59Z" fill="#939393"/>
<rect x="60.2379" y="207.722" width="9" height="9.55693" rx="3" fill="#AEDB04"/>
<path d="M80.8329 210.06V216H79.8699V210.06H80.8329ZM82.4243 216V211.5H83.2793L83.3423 212.67L83.2163 212.544C83.3003 212.286 83.4203 212.073 83.5763 211.905C83.7383 211.731 83.9273 211.605 84.1433 211.527C84.3653 211.449 84.5993 211.41 84.8453 211.41C85.1633 211.41 85.4483 211.473 85.7003 211.599C85.9583 211.719 86.1623 211.902 86.3123 212.148C86.4623 212.394 86.5373 212.706 86.5373 213.084V216H85.5743V213.381C85.5743 212.937 85.4813 212.631 85.2953 212.463C85.1153 212.289 84.8873 212.202 84.6113 212.202C84.4133 212.202 84.2213 212.25 84.0353 212.346C83.8493 212.436 83.6933 212.583 83.5673 212.787C83.4473 212.991 83.3873 213.264 83.3873 213.606V216H82.4243ZM90.5976 213.111C90.5976 212.811 90.5136 212.58 90.3456 212.418C90.1836 212.25 89.9586 212.166 89.6706 212.166C89.4006 212.166 89.1696 212.229 88.9776 212.355C88.7856 212.481 88.6446 212.685 88.5546 212.967L87.7446 212.625C87.8586 212.259 88.0806 211.965 88.4106 211.743C88.7466 211.521 89.1786 211.41 89.7066 211.41C90.0666 211.41 90.3846 211.47 90.6606 211.59C90.9366 211.704 91.1526 211.878 91.3086 212.112C91.4706 212.346 91.5516 212.646 91.5516 213.012V215.019C91.5516 215.241 91.6626 215.352 91.8846 215.352C91.9926 215.352 92.0976 215.337 92.1996 215.307L92.1456 215.973C92.0076 216.039 91.8336 216.072 91.6236 216.072C91.4316 216.072 91.2576 216.039 91.1016 215.973C90.9516 215.901 90.8316 215.796 90.7416 215.658C90.6576 215.514 90.6156 215.337 90.6156 215.127V215.064L90.8136 215.055C90.7596 215.289 90.6486 215.484 90.4806 215.64C90.3126 215.79 90.1176 215.904 89.8956 215.982C89.6736 216.054 89.4486 216.09 89.2206 216.09C88.9386 216.09 88.6836 216.045 88.4556 215.955C88.2336 215.865 88.0566 215.73 87.9246 215.55C87.7986 215.364 87.7356 215.136 87.7356 214.866C87.7356 214.53 87.8436 214.254 88.0596 214.038C88.2816 213.822 88.5936 213.675 88.9956 213.597L90.7416 213.255L90.7326 213.93L89.4636 214.191C89.2116 214.239 89.0226 214.308 88.8966 214.398C88.7706 214.488 88.7076 214.62 88.7076 214.794C88.7076 214.962 88.7706 215.097 88.8966 215.199C89.0286 215.295 89.2026 215.343 89.4186 215.343C89.5686 215.343 89.7126 215.325 89.8506 215.289C89.9946 215.253 90.1236 215.196 90.2376 215.118C90.3516 215.034 90.4386 214.929 90.4986 214.803C90.5646 214.671 90.5976 214.515 90.5976 214.335V213.111ZM95.0646 211.41C95.4246 211.41 95.7306 211.464 95.9826 211.572C96.2406 211.674 96.4566 211.821 96.6306 212.013C96.8046 212.205 96.9366 212.424 97.0266 212.67L96.1176 213.03C96.0396 212.754 95.9136 212.544 95.7396 212.4C95.5716 212.25 95.3496 212.175 95.0736 212.175C94.8036 212.175 94.5726 212.238 94.3806 212.364C94.1886 212.484 94.0416 212.661 93.9396 212.895C93.8436 213.129 93.7956 213.417 93.7956 213.759C93.7956 214.095 93.8466 214.38 93.9486 214.614C94.0506 214.848 94.1976 215.025 94.3896 215.145C94.5816 215.265 94.8096 215.325 95.0736 215.325C95.2776 215.325 95.4546 215.292 95.6046 215.226C95.7546 215.154 95.8776 215.055 95.9736 214.929C96.0756 214.797 96.1446 214.638 96.1806 214.452L97.0536 214.749C96.9696 215.019 96.8376 215.256 96.6576 215.46C96.4836 215.658 96.2646 215.814 96.0006 215.928C95.7366 216.036 95.4336 216.09 95.0916 216.09C94.6476 216.09 94.2546 215.997 93.9126 215.811C93.5706 215.625 93.3036 215.358 93.1116 215.01C92.9256 214.656 92.8326 214.236 92.8326 213.75C92.8326 213.264 92.9256 212.847 93.1116 212.499C93.3036 212.145 93.5676 211.875 93.9036 211.689C94.2456 211.503 94.6326 211.41 95.0646 211.41ZM99.4883 210.177V214.65C99.4883 214.872 99.5453 215.034 99.6593 215.136C99.7793 215.238 99.9383 215.289 100.136 215.289C100.298 215.289 100.439 215.265 100.559 215.217C100.679 215.163 100.79 215.091 100.892 215.001L101.108 215.703C100.97 215.823 100.799 215.919 100.595 215.991C100.397 216.057 100.175 216.09 99.9293 216.09C99.6713 216.09 99.4343 216.048 99.2183 215.964C99.0023 215.88 98.8343 215.745 98.7143 215.559C98.5943 215.367 98.5313 215.118 98.5253 214.812V210.447L99.4883 210.177ZM101.036 211.5V212.256H97.6613V211.5H101.036ZM102.475 210.744C102.265 210.744 102.103 210.693 101.989 210.591C101.881 210.483 101.827 210.333 101.827 210.141C101.827 209.949 101.881 209.802 101.989 209.7C102.103 209.598 102.265 209.547 102.475 209.547C102.679 209.547 102.835 209.598 102.943 209.7C103.057 209.802 103.114 209.949 103.114 210.141C103.114 210.333 103.057 210.483 102.943 210.591C102.835 210.693 102.679 210.744 102.475 210.744ZM102.952 211.5V216H101.989V211.5H102.952ZM107.42 211.5H108.428L106.637 216H105.584L103.784 211.5H104.837L106.115 215.163L107.42 211.5ZM111.202 216.09C110.752 216.09 110.356 215.997 110.014 215.811C109.672 215.625 109.405 215.358 109.213 215.01C109.027 214.656 108.934 214.236 108.934 213.75C108.934 213.264 109.027 212.847 109.213 212.499C109.405 212.145 109.669 211.875 110.005 211.689C110.341 211.503 110.722 211.41 111.148 211.41C111.586 211.41 111.958 211.5 112.264 211.68C112.57 211.86 112.804 212.106 112.966 212.418C113.128 212.73 113.209 213.084 113.209 213.48C113.209 213.588 113.206 213.69 113.2 213.786C113.194 213.882 113.185 213.966 113.173 214.038H109.555V213.3H112.75L112.273 213.444C112.273 213.036 112.171 212.724 111.967 212.508C111.763 212.286 111.484 212.175 111.13 212.175C110.872 212.175 110.647 212.235 110.455 212.355C110.263 212.475 110.116 212.655 110.014 212.895C109.912 213.129 109.861 213.417 109.861 213.759C109.861 214.095 109.915 214.38 110.023 214.614C110.131 214.848 110.284 215.025 110.482 215.145C110.68 215.265 110.914 215.325 111.184 215.325C111.484 215.325 111.727 215.268 111.913 215.154C112.099 215.04 112.246 214.881 112.354 214.677L113.119 215.037C113.011 215.253 112.864 215.442 112.678 215.604C112.498 215.76 112.282 215.88 112.03 215.964C111.778 216.048 111.502 216.09 111.202 216.09ZM122.221 210.06V213.723C122.221 214.509 122.014 215.1 121.6 215.496C121.186 215.892 120.583 216.09 119.791 216.09C119.011 216.09 118.411 215.892 117.991 215.496C117.577 215.1 117.37 214.509 117.37 213.723V210.06H118.333V213.606C118.333 214.164 118.453 214.578 118.693 214.848C118.933 215.118 119.299 215.253 119.791 215.253C120.289 215.253 120.658 215.118 120.898 214.848C121.138 214.578 121.258 214.164 121.258 213.606V210.06H122.221ZM125.381 216.09C124.931 216.09 124.52 216.003 124.148 215.829C123.776 215.655 123.482 215.409 123.266 215.091L123.932 214.515C124.064 214.761 124.253 214.959 124.499 215.109C124.751 215.253 125.051 215.325 125.399 215.325C125.675 215.325 125.894 215.277 126.056 215.181C126.218 215.085 126.299 214.95 126.299 214.776C126.299 214.662 126.26 214.563 126.182 214.479C126.11 214.389 125.969 214.32 125.759 214.272L124.814 214.074C124.334 213.978 123.992 213.825 123.788 213.615C123.584 213.399 123.482 213.126 123.482 212.796C123.482 212.55 123.554 212.322 123.698 212.112C123.842 211.902 124.052 211.734 124.328 211.608C124.61 211.476 124.946 211.41 125.336 211.41C125.786 211.41 126.17 211.491 126.488 211.653C126.806 211.809 127.049 212.034 127.217 212.328L126.551 212.886C126.437 212.646 126.269 212.469 126.047 212.355C125.825 212.235 125.594 212.175 125.354 212.175C125.162 212.175 124.997 212.199 124.859 212.247C124.721 212.295 124.616 212.361 124.544 212.445C124.472 212.529 124.436 212.628 124.436 212.742C124.436 212.862 124.481 212.967 124.571 213.057C124.661 213.147 124.823 213.216 125.057 213.264L126.083 213.48C126.515 213.564 126.818 213.708 126.992 213.912C127.172 214.11 127.262 214.353 127.262 214.641C127.262 214.929 127.187 215.184 127.037 215.406C126.887 215.622 126.671 215.79 126.389 215.91C126.107 216.03 125.771 216.09 125.381 216.09ZM130.406 216.09C129.956 216.09 129.56 215.997 129.218 215.811C128.876 215.625 128.609 215.358 128.417 215.01C128.231 214.656 128.138 214.236 128.138 213.75C128.138 213.264 128.231 212.847 128.417 212.499C128.609 212.145 128.873 211.875 129.209 211.689C129.545 211.503 129.926 211.41 130.352 211.41C130.79 211.41 131.162 211.5 131.468 211.68C131.774 211.86 132.008 212.106 132.17 212.418C132.332 212.73 132.413 213.084 132.413 213.48C132.413 213.588 132.41 213.69 132.404 213.786C132.398 213.882 132.389 213.966 132.377 214.038H128.759V213.3H131.954L131.477 213.444C131.477 213.036 131.375 212.724 131.171 212.508C130.967 212.286 130.688 212.175 130.334 212.175C130.076 212.175 129.851 212.235 129.659 212.355C129.467 212.475 129.32 212.655 129.218 212.895C129.116 213.129 129.065 213.417 129.065 213.759C129.065 214.095 129.119 214.38 129.227 214.614C129.335 214.848 129.488 215.025 129.686 215.145C129.884 215.265 130.118 215.325 130.388 215.325C130.688 215.325 130.931 215.268 131.117 215.154C131.303 215.04 131.45 214.881 131.558 214.677L132.323 215.037C132.215 215.253 132.068 215.442 131.882 215.604C131.702 215.76 131.486 215.88 131.234 215.964C130.982 216.048 130.706 216.09 130.406 216.09ZM133.629 216V211.5H134.448L134.538 212.31C134.658 212.016 134.835 211.794 135.069 211.644C135.309 211.488 135.603 211.41 135.951 211.41C136.041 211.41 136.131 211.419 136.221 211.437C136.311 211.449 136.386 211.47 136.446 211.5L136.311 212.346C136.245 212.322 136.17 212.304 136.086 212.292C136.008 212.274 135.9 212.265 135.762 212.265C135.576 212.265 135.393 212.316 135.213 212.418C135.033 212.514 134.883 212.661 134.763 212.859C134.649 213.057 134.592 213.309 134.592 213.615V216H133.629ZM138.917 216.09C138.467 216.09 138.056 216.003 137.684 215.829C137.312 215.655 137.018 215.409 136.802 215.091L137.468 214.515C137.6 214.761 137.789 214.959 138.035 215.109C138.287 215.253 138.587 215.325 138.935 215.325C139.211 215.325 139.43 215.277 139.592 215.181C139.754 215.085 139.835 214.95 139.835 214.776C139.835 214.662 139.796 214.563 139.718 214.479C139.646 214.389 139.505 214.32 139.295 214.272L138.35 214.074C137.87 213.978 137.528 213.825 137.324 213.615C137.12 213.399 137.018 213.126 137.018 212.796C137.018 212.55 137.09 212.322 137.234 212.112C137.378 211.902 137.588 211.734 137.864 211.608C138.146 211.476 138.482 211.41 138.872 211.41C139.322 211.41 139.706 211.491 140.024 211.653C140.342 211.809 140.585 212.034 140.753 212.328L140.087 212.886C139.973 212.646 139.805 212.469 139.583 212.355C139.361 212.235 139.13 212.175 138.89 212.175C138.698 212.175 138.533 212.199 138.395 212.247C138.257 212.295 138.152 212.361 138.08 212.445C138.008 212.529 137.972 212.628 137.972 212.742C137.972 212.862 138.017 212.967 138.107 213.057C138.197 213.147 138.359 213.216 138.593 213.264L139.619 213.48C140.051 213.564 140.354 213.708 140.528 213.912C140.708 214.11 140.798 214.353 140.798 214.641C140.798 214.929 140.723 215.184 140.573 215.406C140.423 215.622 140.207 215.79 139.925 215.91C139.643 216.03 139.307 216.09 138.917 216.09Z" fill="#939393"/>
<rect x="60.2379" y="223.222" width="9" height="9.55693" rx="3" fill="#D9D9D9"/>
<path d="M82.2909 225.56C82.9269 225.56 83.4309 225.719 83.8029 226.037C84.1809 226.355 84.3699 226.784 84.3699 227.324C84.3699 227.882 84.1809 228.314 83.8029 228.62C83.4309 228.92 82.9269 229.07 82.2909 229.07L82.2009 229.124H80.8239V231.5H79.8699V225.56H82.2909ZM82.2189 228.323C82.6089 228.323 82.8969 228.245 83.0829 228.089C83.2749 227.927 83.3709 227.681 83.3709 227.351C83.3709 227.027 83.2749 226.784 83.0829 226.622C82.8969 226.46 82.6089 226.379 82.2189 226.379H80.8239V228.323H82.2189ZM82.7859 228.521L84.7209 231.5H83.6139L81.9579 228.899L82.7859 228.521ZM87.6387 231.59C87.1887 231.59 86.7927 231.497 86.4507 231.311C86.1087 231.125 85.8417 230.858 85.6497 230.51C85.4637 230.156 85.3707 229.736 85.3707 229.25C85.3707 228.764 85.4637 228.347 85.6497 227.999C85.8417 227.645 86.1057 227.375 86.4417 227.189C86.7777 227.003 87.1587 226.91 87.5847 226.91C88.0227 226.91 88.3947 227 88.7007 227.18C89.0067 227.36 89.2407 227.606 89.4027 227.918C89.5647 228.23 89.6457 228.584 89.6457 228.98C89.6457 229.088 89.6427 229.19 89.6367 229.286C89.6307 229.382 89.6217 229.466 89.6097 229.538H85.9917V228.8H89.1867L88.7097 228.944C88.7097 228.536 88.6077 228.224 88.4037 228.008C88.1997 227.786 87.9207 227.675 87.5667 227.675C87.3087 227.675 87.0837 227.735 86.8917 227.855C86.6997 227.975 86.5527 228.155 86.4507 228.395C86.3487 228.629 86.2977 228.917 86.2977 229.259C86.2977 229.595 86.3517 229.88 86.4597 230.114C86.5677 230.348 86.7207 230.525 86.9187 230.645C87.1167 230.765 87.3507 230.825 87.6207 230.825C87.9207 230.825 88.1637 230.768 88.3497 230.654C88.5357 230.54 88.6827 230.381 88.7907 230.177L89.5557 230.537C89.4477 230.753 89.3007 230.942 89.1147 231.104C88.9347 231.26 88.7187 231.38 88.4667 231.464C88.2147 231.548 87.9387 231.59 87.6387 231.59ZM94.8218 226.055L94.9748 226.811C94.9568 226.811 94.9388 226.811 94.9208 226.811C94.9028 226.805 94.8848 226.802 94.8668 226.802C94.5788 226.802 94.3598 226.865 94.2098 226.991C94.0598 227.111 93.9848 227.288 93.9848 227.522L93.5168 227.306C93.5168 227.066 93.5678 226.853 93.6698 226.667C93.7718 226.475 93.9158 226.325 94.1018 226.217C94.2938 226.109 94.5098 226.055 94.7498 226.055C94.7618 226.055 94.7738 226.055 94.7858 226.055C94.7978 226.055 94.8098 226.055 94.8218 226.055ZM93.3998 230.798C93.8558 230.798 94.2098 230.9 94.4618 231.104C94.7138 231.302 94.8398 231.578 94.8398 231.932C94.8398 232.244 94.7408 232.511 94.5428 232.733C94.3448 232.961 94.0748 233.135 93.7328 233.255C93.3968 233.375 93.0098 233.435 92.5718 233.435C91.8338 233.435 91.2878 233.321 90.9338 233.093C90.5798 232.865 90.4028 232.58 90.4028 232.238C90.4028 231.998 90.4868 231.788 90.6548 231.608C90.8288 231.428 91.1198 231.326 91.5278 231.302L91.4738 231.446C91.2218 231.392 91.0178 231.296 90.8618 231.158C90.7118 231.014 90.6368 230.813 90.6368 230.555C90.6368 230.297 90.7358 230.078 90.9338 229.898C91.1318 229.718 91.4108 229.613 91.7708 229.583L92.2748 229.826H92.1668C91.8908 229.85 91.6958 229.913 91.5818 230.015C91.4678 230.117 91.4108 230.231 91.4108 230.357C91.4108 230.507 91.4648 230.618 91.5728 230.69C91.6868 230.762 91.8458 230.798 92.0498 230.798H93.3998ZM92.5718 232.715C92.9018 232.715 93.1718 232.682 93.3818 232.616C93.5978 232.556 93.7568 232.475 93.8588 232.373C93.9668 232.277 94.0208 232.169 94.0208 232.049C94.0208 231.911 93.9638 231.8 93.8498 231.716C93.7418 231.632 93.5438 231.59 93.2558 231.59H91.8068C91.6388 231.59 91.4978 231.632 91.3838 231.716C91.2698 231.806 91.2128 231.926 91.2128 232.076C91.2128 232.274 91.3328 232.43 91.5728 232.544C91.8128 232.658 92.1458 232.715 92.5718 232.715ZM92.5358 226.91C92.9318 226.91 93.2738 226.973 93.5618 227.099C93.8558 227.225 94.0808 227.402 94.2368 227.63C94.3988 227.858 94.4798 228.125 94.4798 228.431C94.4798 228.737 94.3988 229.004 94.2368 229.232C94.0808 229.46 93.8558 229.637 93.5618 229.763C93.2738 229.889 92.9318 229.952 92.5358 229.952C91.9118 229.952 91.4318 229.814 91.0958 229.538C90.7658 229.256 90.6008 228.887 90.6008 228.431C90.6008 228.125 90.6818 227.858 90.8438 227.63C91.0058 227.402 91.2308 227.225 91.5188 227.099C91.8128 226.973 92.1518 226.91 92.5358 226.91ZM92.5358 227.585C92.2598 227.585 92.0288 227.663 91.8428 227.819C91.6628 227.969 91.5728 228.173 91.5728 228.431C91.5728 228.689 91.6628 228.896 91.8428 229.052C92.0288 229.208 92.2598 229.286 92.5358 229.286C92.8178 229.286 93.0488 229.208 93.2288 229.052C93.4148 228.896 93.5078 228.689 93.5078 228.431C93.5078 228.173 93.4148 227.969 93.2288 227.819C93.0488 227.663 92.8178 227.585 92.5358 227.585ZM96.2082 226.244C95.9982 226.244 95.8362 226.193 95.7222 226.091C95.6142 225.983 95.5602 225.833 95.5602 225.641C95.5602 225.449 95.6142 225.302 95.7222 225.2C95.8362 225.098 95.9982 225.047 96.2082 225.047C96.4122 225.047 96.5682 225.098 96.6762 225.2C96.7902 225.302 96.8472 225.449 96.8472 225.641C96.8472 225.833 96.7902 225.983 96.6762 226.091C96.5682 226.193 96.4122 226.244 96.2082 226.244ZM96.6852 227V231.5H95.7222V227H96.6852ZM99.9019 231.59C99.4519 231.59 99.0409 231.503 98.6689 231.329C98.2969 231.155 98.0029 230.909 97.7869 230.591L98.4529 230.015C98.5849 230.261 98.7739 230.459 99.0199 230.609C99.2719 230.753 99.5719 230.825 99.9199 230.825C100.196 230.825 100.415 230.777 100.577 230.681C100.739 230.585 100.82 230.45 100.82 230.276C100.82 230.162 100.781 230.063 100.703 229.979C100.631 229.889 100.49 229.82 100.28 229.772L99.3349 229.574C98.8549 229.478 98.5129 229.325 98.3089 229.115C98.1049 228.899 98.0029 228.626 98.0029 228.296C98.0029 228.05 98.0749 227.822 98.2189 227.612C98.3629 227.402 98.5729 227.234 98.8489 227.108C99.1309 226.976 99.4669 226.91 99.8569 226.91C100.307 226.91 100.691 226.991 101.009 227.153C101.327 227.309 101.57 227.534 101.738 227.828L101.072 228.386C100.958 228.146 100.79 227.969 100.568 227.855C100.346 227.735 100.115 227.675 99.8749 227.675C99.6829 227.675 99.5179 227.699 99.3799 227.747C99.2419 227.795 99.1369 227.861 99.0649 227.945C98.9929 228.029 98.9569 228.128 98.9569 228.242C98.9569 228.362 99.0019 228.467 99.0919 228.557C99.1819 228.647 99.3439 228.716 99.5779 228.764L100.604 228.98C101.036 229.064 101.339 229.208 101.513 229.412C101.693 229.61 101.783 229.853 101.783 230.141C101.783 230.429 101.708 230.684 101.558 230.906C101.408 231.122 101.192 231.29 100.91 231.41C100.628 231.53 100.292 231.59 99.9019 231.59ZM104.27 225.677V230.15C104.27 230.372 104.327 230.534 104.441 230.636C104.561 230.738 104.72 230.789 104.918 230.789C105.08 230.789 105.221 230.765 105.341 230.717C105.461 230.663 105.572 230.591 105.674 230.501L105.89 231.203C105.752 231.323 105.581 231.419 105.377 231.491C105.179 231.557 104.957 231.59 104.711 231.59C104.453 231.59 104.216 231.548 104 231.464C103.784 231.38 103.616 231.245 103.496 231.059C103.376 230.867 103.313 230.618 103.307 230.312V225.947L104.27 225.677ZM105.818 227V227.756H102.443V227H105.818ZM108.75 231.59C108.3 231.59 107.904 231.497 107.562 231.311C107.22 231.125 106.953 230.858 106.761 230.51C106.575 230.156 106.482 229.736 106.482 229.25C106.482 228.764 106.575 228.347 106.761 227.999C106.953 227.645 107.217 227.375 107.553 227.189C107.889 227.003 108.27 226.91 108.696 226.91C109.134 226.91 109.506 227 109.812 227.18C110.118 227.36 110.352 227.606 110.514 227.918C110.676 228.23 110.757 228.584 110.757 228.98C110.757 229.088 110.754 229.19 110.748 229.286C110.742 229.382 110.733 229.466 110.721 229.538H107.103V228.8H110.298L109.821 228.944C109.821 228.536 109.719 228.224 109.515 228.008C109.311 227.786 109.032 227.675 108.678 227.675C108.42 227.675 108.195 227.735 108.003 227.855C107.811 227.975 107.664 228.155 107.562 228.395C107.46 228.629 107.409 228.917 107.409 229.259C107.409 229.595 107.463 229.88 107.571 230.114C107.679 230.348 107.832 230.525 108.03 230.645C108.228 230.765 108.462 230.825 108.732 230.825C109.032 230.825 109.275 230.768 109.461 230.654C109.647 230.54 109.794 230.381 109.902 230.177L110.667 230.537C110.559 230.753 110.412 230.942 110.226 231.104C110.046 231.26 109.83 231.38 109.578 231.464C109.326 231.548 109.05 231.59 108.75 231.59ZM111.973 231.5V227H112.792L112.882 227.81C113.002 227.516 113.179 227.294 113.413 227.144C113.653 226.988 113.947 226.91 114.295 226.91C114.385 226.91 114.475 226.919 114.565 226.937C114.655 226.949 114.73 226.97 114.79 227L114.655 227.846C114.589 227.822 114.514 227.804 114.43 227.792C114.352 227.774 114.244 227.765 114.106 227.765C113.92 227.765 113.737 227.816 113.557 227.918C113.377 228.014 113.227 228.161 113.107 228.359C112.993 228.557 112.936 228.809 112.936 229.115V231.5H111.973ZM117.565 231.59C117.115 231.59 116.719 231.497 116.377 231.311C116.035 231.125 115.768 230.858 115.576 230.51C115.39 230.156 115.297 229.736 115.297 229.25C115.297 228.764 115.39 228.347 115.576 227.999C115.768 227.645 116.032 227.375 116.368 227.189C116.704 227.003 117.085 226.91 117.511 226.91C117.949 226.91 118.321 227 118.627 227.18C118.933 227.36 119.167 227.606 119.329 227.918C119.491 228.23 119.572 228.584 119.572 228.98C119.572 229.088 119.569 229.19 119.563 229.286C119.557 229.382 119.548 229.466 119.536 229.538H115.918V228.8H119.113L118.636 228.944C118.636 228.536 118.534 228.224 118.33 228.008C118.126 227.786 117.847 227.675 117.493 227.675C117.235 227.675 117.01 227.735 116.818 227.855C116.626 227.975 116.479 228.155 116.377 228.395C116.275 228.629 116.224 228.917 116.224 229.259C116.224 229.595 116.278 229.88 116.386 230.114C116.494 230.348 116.647 230.525 116.845 230.645C117.043 230.765 117.277 230.825 117.547 230.825C117.847 230.825 118.09 230.768 118.276 230.654C118.462 230.54 118.609 230.381 118.717 230.177L119.482 230.537C119.374 230.753 119.227 230.942 119.041 231.104C118.861 231.26 118.645 231.38 118.393 231.464C118.141 231.548 117.865 231.59 117.565 231.59ZM122.517 231.59C122.145 231.59 121.806 231.497 121.5 231.311C121.2 231.125 120.963 230.858 120.789 230.51C120.615 230.162 120.528 229.745 120.528 229.259C120.528 228.755 120.621 228.329 120.807 227.981C120.993 227.633 121.242 227.369 121.554 227.189C121.866 227.003 122.208 226.91 122.58 226.91C122.964 226.91 123.288 227.015 123.552 227.225C123.816 227.435 123.993 227.708 124.083 228.044L123.975 228.143V224.975H124.938V231.5H124.083L124.011 230.276L124.137 230.285C124.095 230.555 123.996 230.789 123.84 230.987C123.684 231.179 123.489 231.329 123.255 231.437C123.027 231.539 122.781 231.59 122.517 231.59ZM122.724 230.816C122.982 230.816 123.204 230.75 123.39 230.618C123.576 230.486 123.72 230.3 123.822 230.06C123.924 229.82 123.975 229.532 123.975 229.196C123.975 228.884 123.924 228.617 123.822 228.395C123.72 228.167 123.576 227.993 123.39 227.873C123.21 227.753 123 227.693 122.76 227.693C122.358 227.693 122.046 227.831 121.824 228.107C121.602 228.383 121.491 228.764 121.491 229.25C121.491 229.736 121.599 230.12 121.815 230.402C122.031 230.678 122.334 230.816 122.724 230.816ZM130.96 231.59C130.666 231.59 130.393 231.536 130.141 231.428C129.895 231.32 129.697 231.146 129.547 230.906C129.397 230.666 129.322 230.354 129.322 229.97V227H130.285V229.727C130.285 230.135 130.372 230.417 130.546 230.573C130.72 230.723 130.963 230.798 131.275 230.798C131.425 230.798 131.569 230.774 131.707 230.726C131.851 230.672 131.98 230.591 132.094 230.483C132.208 230.369 132.295 230.225 132.355 230.051C132.421 229.877 132.454 229.673 132.454 229.439V227H133.417V231.5H132.571L132.526 230.771C132.37 231.053 132.16 231.26 131.896 231.392C131.632 231.524 131.32 231.59 130.96 231.59ZM136.631 231.59C136.181 231.59 135.77 231.503 135.398 231.329C135.026 231.155 134.732 230.909 134.516 230.591L135.182 230.015C135.314 230.261 135.503 230.459 135.749 230.609C136.001 230.753 136.301 230.825 136.649 230.825C136.925 230.825 137.144 230.777 137.306 230.681C137.468 230.585 137.549 230.45 137.549 230.276C137.549 230.162 137.51 230.063 137.432 229.979C137.36 229.889 137.219 229.82 137.009 229.772L136.064 229.574C135.584 229.478 135.242 229.325 135.038 229.115C134.834 228.899 134.732 228.626 134.732 228.296C134.732 228.05 134.804 227.822 134.948 227.612C135.092 227.402 135.302 227.234 135.578 227.108C135.86 226.976 136.196 226.91 136.586 226.91C137.036 226.91 137.42 226.991 137.738 227.153C138.056 227.309 138.299 227.534 138.467 227.828L137.801 228.386C137.687 228.146 137.519 227.969 137.297 227.855C137.075 227.735 136.844 227.675 136.604 227.675C136.412 227.675 136.247 227.699 136.109 227.747C135.971 227.795 135.866 227.861 135.794 227.945C135.722 228.029 135.686 228.128 135.686 228.242C135.686 228.362 135.731 228.467 135.821 228.557C135.911 228.647 136.073 228.716 136.307 228.764L137.333 228.98C137.765 229.064 138.068 229.208 138.242 229.412C138.422 229.61 138.512 229.853 138.512 230.141C138.512 230.429 138.437 230.684 138.287 230.906C138.137 231.122 137.921 231.29 137.639 231.41C137.357 231.53 137.021 231.59 136.631 231.59ZM141.656 231.59C141.206 231.59 140.81 231.497 140.468 231.311C140.126 231.125 139.859 230.858 139.667 230.51C139.481 230.156 139.388 229.736 139.388 229.25C139.388 228.764 139.481 228.347 139.667 227.999C139.859 227.645 140.123 227.375 140.459 227.189C140.795 227.003 141.176 226.91 141.602 226.91C142.04 226.91 142.412 227 142.718 227.18C143.024 227.36 143.258 227.606 143.42 227.918C143.582 228.23 143.663 228.584 143.663 228.98C143.663 229.088 143.66 229.19 143.654 229.286C143.648 229.382 143.639 229.466 143.627 229.538H140.009V228.8H143.204L142.727 228.944C142.727 228.536 142.625 228.224 142.421 228.008C142.217 227.786 141.938 227.675 141.584 227.675C141.326 227.675 141.101 227.735 140.909 227.855C140.717 227.975 140.57 228.155 140.468 228.395C140.366 228.629 140.315 228.917 140.315 229.259C140.315 229.595 140.369 229.88 140.477 230.114C140.585 230.348 140.738 230.525 140.936 230.645C141.134 230.765 141.368 230.825 141.638 230.825C141.938 230.825 142.181 230.768 142.367 230.654C142.553 230.54 142.7 230.381 142.808 230.177L143.573 230.537C143.465 230.753 143.318 230.942 143.132 231.104C142.952 231.26 142.736 231.38 142.484 231.464C142.232 231.548 141.956 231.59 141.656 231.59ZM144.879 231.5V227H145.698L145.788 227.81C145.908 227.516 146.085 227.294 146.319 227.144C146.559 226.988 146.853 226.91 147.201 226.91C147.291 226.91 147.381 226.919 147.471 226.937C147.561 226.949 147.636 226.97 147.696 227L147.561 227.846C147.495 227.822 147.42 227.804 147.336 227.792C147.258 227.774 147.15 227.765 147.012 227.765C146.826 227.765 146.643 227.816 146.463 227.918C146.283 228.014 146.133 228.161 146.013 228.359C145.899 228.557 145.842 228.809 145.842 229.115V231.5H144.879ZM150.167 231.59C149.717 231.59 149.306 231.503 148.934 231.329C148.562 231.155 148.268 230.909 148.052 230.591L148.718 230.015C148.85 230.261 149.039 230.459 149.285 230.609C149.537 230.753 149.837 230.825 150.185 230.825C150.461 230.825 150.68 230.777 150.842 230.681C151.004 230.585 151.085 230.45 151.085 230.276C151.085 230.162 151.046 230.063 150.968 229.979C150.896 229.889 150.755 229.82 150.545 229.772L149.6 229.574C149.12 229.478 148.778 229.325 148.574 229.115C148.37 228.899 148.268 228.626 148.268 228.296C148.268 228.05 148.34 227.822 148.484 227.612C148.628 227.402 148.838 227.234 149.114 227.108C149.396 226.976 149.732 226.91 150.122 226.91C150.572 226.91 150.956 226.991 151.274 227.153C151.592 227.309 151.835 227.534 152.003 227.828L151.337 228.386C151.223 228.146 151.055 227.969 150.833 227.855C150.611 227.735 150.38 227.675 150.14 227.675C149.948 227.675 149.783 227.699 149.645 227.747C149.507 227.795 149.402 227.861 149.33 227.945C149.258 228.029 149.222 228.128 149.222 228.242C149.222 228.362 149.267 228.467 149.357 228.557C149.447 228.647 149.609 228.716 149.843 228.764L150.869 228.98C151.301 229.064 151.604 229.208 151.778 229.412C151.958 229.61 152.048 229.853 152.048 230.141C152.048 230.429 151.973 230.684 151.823 230.906C151.673 231.122 151.457 231.29 151.175 231.41C150.893 231.53 150.557 231.59 150.167 231.59Z" fill="#939393"/>
</g>
<defs>
<filter id="filter0_d_11_735" x="0.487885" y="0.5" width="259.5" height="312.75" filterUnits="userSpaceOnUse" color-interpolation-filters="sRGB">
<feFlood flood-opacity="0" result="BackgroundImageFix"/>
<feColorMatrix in="SourceAlpha" type="matrix" values="0 0 0 0 0 0 0 0 0 0 0 0 0 0 0 0 0 0 127 0" result="hardAlpha"/>
<feOffset dx="4" dy="16"/>
<feGaussianBlur stdDeviation="15"/>
<feComposite in2="hardAlpha" operator="out"/>
<feColorMatrix type="matrix" values="0 0 0 0 0 0 0 0 0 0.388235 0 0 0 0 0.505882 0 0 0 0.5 0"/>
<feBlend mode="normal" in2="BackgroundImageFix" result="effect1_dropShadow_11_735"/>
<feBlend mode="normal" in="SourceGraphic" in2="effect1_dropShadow_11_735" result="shape"/>
</filter>
</defs>
</svg>
