<svg width="325" height="171" viewBox="0 0 325 171" fill="none" xmlns="http://www.w3.org/2000/svg">
<g filter="url(#filter0_d_11_844)">
<rect x="32.125" y="20.375" width="252.75" height="98.25" rx="11.25" fill="#00A8DC" shape-rendering="crispEdges"/>
<rect x="35.125" y="23.375" width="246.75" height="92.25" rx="10" fill="white"/>
<rect x="57.625" y="46.625" width="8.25" height="132.75" rx="3.75" transform="rotate(-90 57.625 46.625)" fill="#C3C3C3"/>
<rect x="57.625" y="58.625" width="8.25" height="82.5" rx="3.75" transform="rotate(-90 57.625 58.625)" fill="#C3C3C3"/>
<rect x="57.625" y="70.625" width="8.25" height="118.5" rx="3.75" transform="rotate(-90 57.625 70.625)" fill="#C3C3C3"/>
<rect x="57.625" y="82.625" width="8.25" height="132.75" rx="3.75" transform="rotate(-90 57.625 82.625)" fill="#C3C3C3"/>
<path d="M64.75 86.375L66.844 90.6179L71.5263 91.2983L68.1381 94.6009L68.938 99.2642L64.75 97.0625L60.562 99.2642L61.3619 94.6009L57.9737 91.2983L62.656 90.6179L64.75 86.375Z" fill="#AEDB04"/>
<path d="M82.75 86.375L84.844 90.6179L89.5263 91.2983L86.1381 94.6009L86.938 99.2642L82.75 97.0625L78.562 99.2642L79.3619 94.6009L75.9737 91.2983L80.656 90.6179L82.75 86.375Z" fill="#AEDB04"/>
<path d="M100.75 86.375L102.844 90.6179L107.526 91.2983L104.138 94.6009L104.938 99.2642L100.75 97.0625L96.562 99.2642L97.3619 94.6009L93.9737 91.2983L98.656 90.6179L100.75 86.375Z" fill="#AEDB04"/>
<path d="M118.75 86.375L120.844 90.6179L125.526 91.2983L122.138 94.6009L122.938 99.2642L118.75 97.0625L114.562 99.2642L115.362 94.6009L111.974 91.2983L116.656 90.6179L118.75 86.375Z" fill="#AEDB04"/>
<path d="M136.75 86.375L138.844 90.6179L143.526 91.2983L140.138 94.6009L140.938 99.2642L136.75 97.0625L132.562 99.2642L133.362 94.6009L129.974 91.2983L134.656 90.6179L136.75 86.375Z" fill="#AEDB04"/>
<rect x="205.375" y="56" width="54" height="27" rx="13.5" fill="#0096C4"/>
<circle cx="244.375" cy="69.5" r="9" fill="white"/>
</g>
<defs>
<filter id="filter0_d_11_844" x="0.125" y="0.375" width="324.75" height="170.25" filterUnits="userSpaceOnUse" color-interpolation-filters="sRGB">
<feFlood flood-opacity="0" result="BackgroundImageFix"/>
<feColorMatrix in="SourceAlpha" type="matrix" values="0 0 0 0 0 0 0 0 0 0 0 0 0 0 0 0 0 0 127 0" result="hardAlpha"/>
<feOffset dx="4" dy="16"/>
<feGaussianBlur stdDeviation="18"/>
<feComposite in2="hardAlpha" operator="out"/>
<feColorMatrix type="matrix" values="0 0 0 0 0 0 0 0 0 0.388235 0 0 0 0 0.505882 0 0 0 0.5 0"/>
<feBlend mode="normal" in2="BackgroundImageFix" result="effect1_dropShadow_11_844"/>
<feBlend mode="normal" in="SourceGraphic" in2="effect1_dropShadow_11_844" result="shape"/>
</filter>
</defs>
</svg>
