<svg width="570" height="354" viewBox="0 0 570 354" fill="none" xmlns="http://www.w3.org/2000/svg">
<g filter="url(#filter0_d_11_674)">
<rect x="26.9879" y="14" width="508.5" height="293.25" rx="11.25" fill="#AEDB04" shape-rendering="crispEdges"/>
<rect x="30.7379" y="17.75" width="501" height="285.75" rx="10" fill="white"/>
<path d="M72.5059 46.39V48.721H67.8649V60.25H64.9669V48.721H60.3049V46.39H72.5059ZM79.1284 49.54C79.5904 49.54 80.0104 49.624 80.2624 49.771L79.9054 52.291C79.6114 52.102 79.1284 51.976 78.5824 51.976C77.3224 51.976 76.0624 52.9 76.0624 54.811V60.25H73.1854V49.75H75.6844L75.8734 51.808C76.4194 50.359 77.4904 49.54 79.1284 49.54ZM91.4572 58.507C91.7092 58.507 91.9612 58.486 92.1712 58.423L91.9612 60.166C91.5832 60.355 91.1212 60.46 90.5962 60.46C89.3362 60.46 88.4752 60.019 88.1812 58.885C87.5512 59.914 86.2282 60.46 84.4642 60.46C82.4692 60.46 81.2092 59.536 81.2092 57.772C81.2092 56.134 82.4902 54.979 85.3042 54.454L87.8242 53.971V53.467C87.8242 52.354 87.1732 51.64 86.0392 51.64C84.8212 51.64 83.9392 52.102 83.6242 53.425L81.3352 52.459C81.7762 50.674 83.3512 49.54 85.9132 49.54C88.8322 49.54 90.6802 50.8 90.6802 53.404V57.709C90.6802 58.255 90.9112 58.507 91.4572 58.507ZM85.3672 58.507C86.4592 58.507 87.8242 57.94 87.8242 56.827V55.735L85.5772 56.239C84.6532 56.449 84.1702 56.785 84.1702 57.478C84.1702 58.15 84.6112 58.507 85.3672 58.507ZM100.177 49.54C102.361 49.54 103.957 50.821 103.957 53.362V60.25H101.08V54.202C101.08 52.396 100.303 51.808 99.2108 51.808C97.9928 51.808 96.7958 52.606 96.7958 54.706V60.25H93.9188V49.75H96.5018L96.6068 51.619C97.2998 50.212 98.6018 49.54 100.177 49.54ZM110.995 60.46C108.832 60.46 107.089 59.872 106.123 58.444L107.803 56.722C108.391 57.982 109.525 58.36 110.953 58.36C112.192 58.36 112.885 57.982 112.885 57.415C112.885 56.932 112.318 56.638 110.785 56.323C107.509 55.672 106.417 54.664 106.417 52.921C106.417 51.22 108.034 49.54 111.142 49.54C113.557 49.54 114.859 50.254 115.825 51.766L114.04 53.278C113.431 52.186 112.591 51.64 111.184 51.64C110.008 51.64 109.294 52.102 109.294 52.648C109.294 53.215 109.819 53.572 111.583 53.929C114.649 54.538 115.783 55.462 115.783 57.205C115.783 59.095 114.124 60.46 110.995 60.46ZM127.674 58.507C127.926 58.507 128.178 58.486 128.388 58.423L128.178 60.166C127.8 60.355 127.338 60.46 126.813 60.46C125.553 60.46 124.692 60.019 124.398 58.885C123.768 59.914 122.445 60.46 120.681 60.46C118.686 60.46 117.426 59.536 117.426 57.772C117.426 56.134 118.707 54.979 121.521 54.454L124.041 53.971V53.467C124.041 52.354 123.39 51.64 122.256 51.64C121.038 51.64 120.156 52.102 119.841 53.425L117.552 52.459C117.993 50.674 119.568 49.54 122.13 49.54C125.049 49.54 126.897 50.8 126.897 53.404V57.709C126.897 58.255 127.128 58.507 127.674 58.507ZM121.584 58.507C122.676 58.507 124.041 57.94 124.041 56.827V55.735L121.794 56.239C120.87 56.449 120.387 56.785 120.387 57.478C120.387 58.15 120.828 58.507 121.584 58.507ZM134.904 49.54C137.865 49.54 139.209 50.905 139.713 52.627L137.025 53.593C136.773 52.333 136.101 51.682 134.988 51.682C133.35 51.682 132.426 52.816 132.426 55.021C132.426 57.268 133.413 58.318 134.967 58.318C136.227 58.318 136.941 57.646 137.151 56.449L139.755 57.289C139.314 59.158 137.676 60.46 135.009 60.46C131.523 60.46 129.549 58.444 129.549 55C129.549 51.556 131.544 49.54 134.904 49.54ZM148.813 57.688L149.254 59.599C148.582 60.145 147.49 60.46 146.377 60.46C144.298 60.46 142.87 59.599 142.87 57.289V51.892H140.959V49.75H142.87V47.335L145.747 46.537V49.75H149.149V51.892H145.747V56.827C145.747 57.835 146.293 58.276 147.196 58.276C147.889 58.276 148.372 58.066 148.813 57.688ZM152.503 48.238C151.306 48.238 150.718 47.734 150.718 46.705C150.718 45.676 151.306 45.151 152.503 45.151C153.7 45.151 154.288 45.676 154.288 46.705C154.288 47.734 153.7 48.238 152.503 48.238ZM153.931 49.75V60.25H151.054V49.75H153.931ZM161.81 49.54C165.191 49.54 167.186 51.577 167.186 55C167.186 58.423 165.191 60.46 161.81 60.46C158.429 60.46 156.434 58.423 156.434 55C156.434 51.577 158.429 49.54 161.81 49.54ZM161.81 51.682C160.193 51.682 159.311 52.774 159.311 55C159.311 57.226 160.193 58.318 161.81 58.318C163.427 58.318 164.309 57.226 164.309 55C164.309 52.774 163.427 51.682 161.81 51.682ZM175.912 49.54C178.096 49.54 179.692 50.821 179.692 53.362V60.25H176.815V54.202C176.815 52.396 176.038 51.808 174.946 51.808C173.728 51.808 172.531 52.606 172.531 54.706V60.25H169.654V49.75H172.237L172.342 51.619C173.035 50.212 174.337 49.54 175.912 49.54ZM186.73 60.46C184.567 60.46 182.824 59.872 181.858 58.444L183.538 56.722C184.126 57.982 185.26 58.36 186.688 58.36C187.927 58.36 188.62 57.982 188.62 57.415C188.62 56.932 188.053 56.638 186.52 56.323C183.244 55.672 182.152 54.664 182.152 52.921C182.152 51.22 183.769 49.54 186.877 49.54C189.292 49.54 190.594 50.254 191.56 51.766L189.775 53.278C189.166 52.186 188.326 51.64 186.919 51.64C185.743 51.64 185.029 52.102 185.029 52.648C185.029 53.215 185.554 53.572 187.318 53.929C190.384 54.538 191.518 55.462 191.518 57.205C191.518 59.095 189.859 60.46 186.73 60.46Z" fill="#0096C4"/>
<path d="M211.833 52.0495C212.047 52.2745 212.038 52.6305 211.813 52.8448L207.875 56.5958C207.658 56.8027 207.317 56.8027 207.1 56.5958L203.162 52.8448C202.937 52.6305 202.928 52.2745 203.142 52.0495C203.357 51.8246 203.713 51.8159 203.938 52.0302L207.488 55.4117L211.037 52.0302C211.262 51.8159 211.618 51.8246 211.833 52.0495Z" fill="#0096C4"/>
<path d="M455.868 56.25V55.548C456.438 55.14 456.915 54.78 457.299 54.468C457.689 54.156 458.001 53.868 458.235 53.604C458.469 53.34 458.637 53.091 458.739 52.857C458.847 52.617 458.901 52.374 458.901 52.128C458.901 51.81 458.802 51.552 458.604 51.354C458.406 51.156 458.13 51.057 457.776 51.057C457.404 51.057 457.107 51.183 456.885 51.435C456.669 51.681 456.546 52.02 456.516 52.452L455.679 52.065C455.721 51.687 455.832 51.36 456.012 51.084C456.192 50.808 456.435 50.595 456.741 50.445C457.053 50.295 457.413 50.22 457.821 50.22C458.157 50.22 458.451 50.268 458.703 50.364C458.961 50.46 459.177 50.595 459.351 50.769C459.525 50.937 459.657 51.135 459.747 51.363C459.843 51.591 459.891 51.834 459.891 52.092C459.891 52.47 459.798 52.836 459.612 53.19C459.426 53.538 459.132 53.895 458.73 54.261C458.328 54.627 457.8 55.02 457.146 55.44V55.458C457.218 55.446 457.317 55.44 457.443 55.44C457.569 55.434 457.695 55.431 457.821 55.431C457.947 55.425 458.049 55.422 458.127 55.422H459.999V56.25H455.868ZM463.346 56.34C462.632 56.34 462.071 56.082 461.663 55.566C461.261 55.044 461.06 54.282 461.06 53.28C461.06 52.278 461.261 51.519 461.663 51.003C462.071 50.481 462.632 50.22 463.346 50.22C464.066 50.22 464.627 50.481 465.029 51.003C465.437 51.519 465.641 52.278 465.641 53.28C465.641 54.282 465.437 55.044 465.029 55.566C464.627 56.082 464.066 56.34 463.346 56.34ZM463.346 55.521C463.634 55.521 463.874 55.44 464.066 55.278C464.264 55.11 464.411 54.861 464.507 54.531C464.609 54.195 464.66 53.778 464.66 53.28C464.66 52.782 464.609 52.368 464.507 52.038C464.411 51.702 464.264 51.453 464.066 51.291C463.874 51.123 463.634 51.039 463.346 51.039C463.058 51.039 462.815 51.123 462.617 51.291C462.425 51.453 462.281 51.702 462.185 52.038C462.089 52.368 462.041 52.782 462.041 53.28C462.041 53.778 462.089 54.195 462.185 54.531C462.281 54.861 462.425 55.11 462.617 55.278C462.815 55.44 463.058 55.521 463.346 55.521ZM466.801 56.25V55.548C467.371 55.14 467.848 54.78 468.232 54.468C468.622 54.156 468.934 53.868 469.168 53.604C469.402 53.34 469.57 53.091 469.672 52.857C469.78 52.617 469.834 52.374 469.834 52.128C469.834 51.81 469.735 51.552 469.537 51.354C469.339 51.156 469.063 51.057 468.709 51.057C468.337 51.057 468.04 51.183 467.818 51.435C467.602 51.681 467.479 52.02 467.449 52.452L466.612 52.065C466.654 51.687 466.765 51.36 466.945 51.084C467.125 50.808 467.368 50.595 467.674 50.445C467.986 50.295 468.346 50.22 468.754 50.22C469.09 50.22 469.384 50.268 469.636 50.364C469.894 50.46 470.11 50.595 470.284 50.769C470.458 50.937 470.59 51.135 470.68 51.363C470.776 51.591 470.824 51.834 470.824 52.092C470.824 52.47 470.731 52.836 470.545 53.19C470.359 53.538 470.065 53.895 469.663 54.261C469.261 54.627 468.733 55.02 468.079 55.44V55.458C468.151 55.446 468.25 55.44 468.376 55.44C468.502 55.434 468.628 55.431 468.754 55.431C468.88 55.425 468.982 55.422 469.06 55.422H470.932V56.25H466.801ZM474.091 56.34C473.533 56.34 473.047 56.217 472.633 55.971C472.225 55.719 471.946 55.368 471.796 54.918L472.732 54.477C472.786 54.693 472.87 54.879 472.984 55.035C473.098 55.191 473.248 55.311 473.434 55.395C473.62 55.473 473.851 55.512 474.127 55.512C474.361 55.512 474.559 55.47 474.721 55.386C474.883 55.302 475.006 55.185 475.09 55.035C475.18 54.885 475.225 54.714 475.225 54.522C475.225 54.324 475.186 54.159 475.108 54.027C475.036 53.895 474.919 53.799 474.757 53.739C474.601 53.679 474.4 53.649 474.154 53.649C474.082 53.649 474.007 53.652 473.929 53.658C473.857 53.658 473.779 53.664 473.695 53.676V52.866C473.749 52.872 473.8 52.878 473.848 52.884C473.902 52.884 473.953 52.884 474.001 52.884C474.391 52.884 474.67 52.806 474.838 52.65C475.006 52.494 475.09 52.251 475.09 51.921C475.09 51.639 475.003 51.423 474.829 51.273C474.661 51.123 474.418 51.048 474.1 51.048C473.77 51.048 473.512 51.126 473.326 51.282C473.146 51.432 473.008 51.651 472.912 51.939L472.03 51.57C472.114 51.294 472.255 51.054 472.453 50.85C472.651 50.646 472.894 50.49 473.182 50.382C473.476 50.268 473.797 50.211 474.145 50.211C474.571 50.211 474.925 50.28 475.207 50.418C475.495 50.556 475.708 50.745 475.846 50.985C475.99 51.225 476.062 51.492 476.062 51.786C476.062 52.014 476.029 52.215 475.963 52.389C475.897 52.557 475.807 52.704 475.693 52.83C475.585 52.95 475.465 53.043 475.333 53.109C475.207 53.175 475.078 53.22 474.946 53.244V53.262C475.12 53.268 475.279 53.304 475.423 53.37C475.573 53.43 475.705 53.517 475.819 53.631C475.939 53.739 476.032 53.871 476.098 54.027C476.164 54.183 476.197 54.354 476.197 54.54C476.197 54.9 476.107 55.215 475.927 55.485C475.747 55.755 475.498 55.965 475.18 56.115C474.868 56.265 474.505 56.34 474.091 56.34Z" fill="#939393"/>
<g clip-path="url(#clip0_11_674)">
<path d="M484.424 51.593L487.738 54.907L491.052 51.593" stroke="#939393" stroke-width="1.125" stroke-linecap="round" stroke-linejoin="round"/>
</g>
<rect x="445.863" y="43.125" width="55.75" height="20.25" rx="5.625" stroke="#CFCFCF" stroke-width="0.75"/>
<path d="M66.4474 79.82V86.75H65.1139L62.4364 82.382L61.7644 81.1535H61.7539L61.7959 82.277V86.75H60.7669V79.82H62.0899L64.7569 84.1775L65.4394 85.427H65.4499L65.4079 84.293V79.82H66.4474ZM70.5476 81.395C71.0586 81.395 71.5101 81.5035 71.9021 81.7205C72.2941 81.9375 72.5986 82.2525 72.8156 82.6655C73.0396 83.0715 73.1516 83.558 73.1516 84.125C73.1516 84.692 73.0396 85.182 72.8156 85.595C72.5986 86.001 72.2941 86.3125 71.9021 86.5295C71.5101 86.7465 71.0586 86.855 70.5476 86.855C70.0366 86.855 69.5851 86.7465 69.1931 86.5295C68.8011 86.3125 68.4931 86.001 68.2691 85.595C68.0451 85.182 67.9331 84.692 67.9331 84.125C67.9331 83.558 68.0451 83.0715 68.2691 82.6655C68.4931 82.2525 68.8011 81.9375 69.1931 81.7205C69.5851 81.5035 70.0366 81.395 70.5476 81.395ZM70.5476 82.277C70.2326 82.277 69.9631 82.3505 69.7391 82.4975C69.5221 82.6375 69.3541 82.844 69.2351 83.117C69.1161 83.39 69.0566 83.726 69.0566 84.125C69.0566 84.517 69.1161 84.853 69.2351 85.133C69.3541 85.406 69.5221 85.616 69.7391 85.763C69.9631 85.903 70.2326 85.973 70.5476 85.973C70.8626 85.973 71.1286 85.903 71.3456 85.763C71.5626 85.616 71.7306 85.406 71.8496 85.133C71.9686 84.853 72.0281 84.517 72.0281 84.125C72.0281 83.726 71.9686 83.39 71.8496 83.117C71.7306 82.844 71.5626 82.6375 71.3456 82.4975C71.1286 82.3505 70.8626 82.277 70.5476 82.277ZM74.9371 85.3325C75.1751 85.3325 75.3641 85.4025 75.5041 85.5425C75.6511 85.6755 75.7246 85.8575 75.7246 86.0885C75.7246 86.3195 75.6511 86.505 75.5041 86.645C75.3641 86.785 75.1751 86.855 74.9371 86.855C74.6921 86.855 74.4961 86.785 74.3491 86.645C74.2091 86.505 74.1391 86.3195 74.1391 86.0885C74.1391 85.8575 74.2091 85.6755 74.3491 85.5425C74.4961 85.4025 74.6921 85.3325 74.9371 85.3325ZM82.9343 81.395C83.4453 81.395 83.8968 81.5035 84.2888 81.7205C84.6808 81.9375 84.9853 82.2525 85.2023 82.6655C85.4263 83.0715 85.5383 83.558 85.5383 84.125C85.5383 84.692 85.4263 85.182 85.2023 85.595C84.9853 86.001 84.6808 86.3125 84.2888 86.5295C83.8968 86.7465 83.4453 86.855 82.9343 86.855C82.4233 86.855 81.9718 86.7465 81.5798 86.5295C81.1878 86.3125 80.8798 86.001 80.6558 85.595C80.4318 85.182 80.3198 84.692 80.3198 84.125C80.3198 83.558 80.4318 83.0715 80.6558 82.6655C80.8798 82.2525 81.1878 81.9375 81.5798 81.7205C81.9718 81.5035 82.4233 81.395 82.9343 81.395ZM82.9343 82.277C82.6193 82.277 82.3498 82.3505 82.1258 82.4975C81.9088 82.6375 81.7408 82.844 81.6218 83.117C81.5028 83.39 81.4433 83.726 81.4433 84.125C81.4433 84.517 81.5028 84.853 81.6218 85.133C81.7408 85.406 81.9088 85.616 82.1258 85.763C82.3498 85.903 82.6193 85.973 82.9343 85.973C83.2493 85.973 83.5153 85.903 83.7323 85.763C83.9493 85.616 84.1173 85.406 84.2363 85.133C84.3553 84.853 84.4148 84.517 84.4148 84.125C84.4148 83.726 84.3553 83.39 84.2363 83.117C84.1173 82.844 83.9493 82.6375 83.7323 82.4975C83.5153 82.3505 83.2493 82.277 82.9343 82.277ZM89.1059 79.064C89.3229 79.064 89.5189 79.0885 89.6939 79.1375C89.8759 79.1795 90.0124 79.239 90.1034 79.316L89.8934 80.1245C89.8164 80.0755 89.7289 80.0405 89.6309 80.0195C89.5329 79.9915 89.4209 79.9775 89.2949 79.9775C89.0079 79.9775 88.7804 80.044 88.6124 80.177C88.4514 80.31 88.3709 80.527 88.3709 80.828V81.5945L88.4024 81.878V86.75H87.2789V80.744C87.2789 80.478 87.3174 80.24 87.3944 80.03C87.4784 79.82 87.6009 79.645 87.7619 79.505C87.9229 79.358 88.1154 79.2495 88.3394 79.1795C88.5704 79.1025 88.8259 79.064 89.1059 79.064ZM90.0719 81.5V82.382H86.2919V81.5H90.0719ZM65.9224 92.82V93.786H63.5494V99.75H62.4259V93.786H60.0529V92.82H65.9224ZM66.4028 99.75V94.5H67.3583L67.4633 95.445C67.6033 95.102 67.8098 94.843 68.0828 94.668C68.3628 94.486 68.7058 94.395 69.1118 94.395C69.2168 94.395 69.3218 94.4055 69.4268 94.4265C69.5318 94.4405 69.6193 94.465 69.6893 94.5L69.5318 95.487C69.4548 95.459 69.3673 95.438 69.2693 95.424C69.1783 95.403 69.0523 95.3925 68.8913 95.3925C68.6743 95.3925 68.4608 95.452 68.2508 95.571C68.0408 95.683 67.8658 95.8545 67.7258 96.0855C67.5928 96.3165 67.5263 96.6105 67.5263 96.9675V99.75H66.4028ZM73.6722 96.3795C73.6722 96.0295 73.5742 95.76 73.3782 95.571C73.1892 95.375 72.9267 95.277 72.5907 95.277C72.2757 95.277 72.0062 95.3505 71.7822 95.4975C71.5582 95.6445 71.3937 95.8825 71.2887 96.2115L70.3437 95.8125C70.4767 95.3855 70.7357 95.0425 71.1207 94.7835C71.5127 94.5245 72.0167 94.395 72.6327 94.395C73.0527 94.395 73.4237 94.465 73.7457 94.605C74.0677 94.738 74.3197 94.941 74.5017 95.214C74.6907 95.487 74.7852 95.837 74.7852 96.264V98.6055C74.7852 98.8645 74.9147 98.994 75.1737 98.994C75.2997 98.994 75.4222 98.9765 75.5412 98.9415L75.4782 99.7185C75.3172 99.7955 75.1142 99.834 74.8692 99.834C74.6452 99.834 74.4422 99.7955 74.2602 99.7185C74.0852 99.6345 73.9452 99.512 73.8402 99.351C73.7422 99.183 73.6932 98.9765 73.6932 98.7315V98.658L73.9242 98.6475C73.8612 98.9205 73.7317 99.148 73.5357 99.33C73.3397 99.505 73.1122 99.638 72.8532 99.729C72.5942 99.813 72.3317 99.855 72.0657 99.855C71.7367 99.855 71.4392 99.8025 71.1732 99.6975C70.9142 99.5925 70.7077 99.435 70.5537 99.225C70.4067 99.008 70.3332 98.742 70.3332 98.427C70.3332 98.035 70.4592 97.713 70.7112 97.461C70.9702 97.209 71.3342 97.0375 71.8032 96.9465L73.8402 96.5475L73.8297 97.335L72.3492 97.6395C72.0552 97.6955 71.8347 97.776 71.6877 97.881C71.5407 97.986 71.4672 98.14 71.4672 98.343C71.4672 98.539 71.5407 98.6965 71.6877 98.8155C71.8417 98.9275 72.0447 98.9835 72.2967 98.9835C72.4717 98.9835 72.6397 98.9625 72.8007 98.9205C72.9687 98.8785 73.1192 98.812 73.2522 98.721C73.3852 98.623 73.4867 98.5005 73.5567 98.3535C73.6337 98.1995 73.6722 98.0175 73.6722 97.8075V96.3795ZM76.626 99.75V94.5H77.6235L77.697 95.865L77.55 95.718C77.648 95.417 77.788 95.1685 77.97 94.9725C78.159 94.7695 78.3795 94.6225 78.6315 94.5315C78.8905 94.4405 79.1635 94.395 79.4505 94.395C79.8215 94.395 80.154 94.4685 80.448 94.6155C80.749 94.7555 80.987 94.969 81.162 95.256C81.337 95.543 81.4245 95.907 81.4245 96.348V99.75H80.301V96.6945C80.301 96.1765 80.1925 95.8195 79.9755 95.6235C79.7655 95.4205 79.4995 95.319 79.1775 95.319C78.9465 95.319 78.7225 95.375 78.5055 95.487C78.2885 95.592 78.1065 95.7635 77.9595 96.0015C77.8195 96.2395 77.7495 96.558 77.7495 96.957V99.75H76.626ZM85.122 99.855C84.597 99.855 84.1175 99.7535 83.6835 99.5505C83.2495 99.3475 82.9065 99.0605 82.6545 98.6895L83.4315 98.0175C83.5855 98.3045 83.806 98.5355 84.093 98.7105C84.387 98.8785 84.737 98.9625 85.143 98.9625C85.465 98.9625 85.7205 98.9065 85.9095 98.7945C86.0985 98.6825 86.193 98.525 86.193 98.322C86.193 98.189 86.1475 98.0735 86.0565 97.9755C85.9725 97.8705 85.808 97.79 85.563 97.734L84.4605 97.503C83.9005 97.391 83.5015 97.2125 83.2635 96.9675C83.0255 96.7155 82.9065 96.397 82.9065 96.012C82.9065 95.725 82.9905 95.459 83.1585 95.214C83.3265 94.969 83.5715 94.773 83.8935 94.626C84.2225 94.472 84.6145 94.395 85.0695 94.395C85.5945 94.395 86.0425 94.4895 86.4135 94.6785C86.7845 94.8605 87.068 95.123 87.264 95.466L86.487 96.117C86.354 95.837 86.158 95.6305 85.899 95.4975C85.64 95.3575 85.3705 95.2875 85.0905 95.2875C84.8665 95.2875 84.674 95.3155 84.513 95.3715C84.352 95.4275 84.2295 95.5045 84.1455 95.6025C84.0615 95.7005 84.0195 95.816 84.0195 95.949C84.0195 96.089 84.072 96.2115 84.177 96.3165C84.282 96.4215 84.471 96.502 84.744 96.558L85.941 96.81C86.445 96.908 86.7985 97.076 87.0015 97.314C87.2115 97.545 87.3165 97.8285 87.3165 98.1645C87.3165 98.5005 87.229 98.798 87.054 99.057C86.879 99.309 86.627 99.505 86.298 99.645C85.969 99.785 85.577 99.855 85.122 99.855ZM91.7191 96.3795C91.7191 96.0295 91.6211 95.76 91.4251 95.571C91.2361 95.375 90.9736 95.277 90.6376 95.277C90.3226 95.277 90.0531 95.3505 89.8291 95.4975C89.6051 95.6445 89.4406 95.8825 89.3356 96.2115L88.3906 95.8125C88.5236 95.3855 88.7826 95.0425 89.1676 94.7835C89.5596 94.5245 90.0636 94.395 90.6796 94.395C91.0996 94.395 91.4706 94.465 91.7926 94.605C92.1146 94.738 92.3666 94.941 92.5486 95.214C92.7376 95.487 92.8321 95.837 92.8321 96.264V98.6055C92.8321 98.8645 92.9616 98.994 93.2206 98.994C93.3466 98.994 93.4691 98.9765 93.5881 98.9415L93.5251 99.7185C93.3641 99.7955 93.1611 99.834 92.9161 99.834C92.6921 99.834 92.4891 99.7955 92.3071 99.7185C92.1321 99.6345 91.9921 99.512 91.8871 99.351C91.7891 99.183 91.7401 98.9765 91.7401 98.7315V98.658L91.9711 98.6475C91.9081 98.9205 91.7786 99.148 91.5826 99.33C91.3866 99.505 91.1591 99.638 90.9001 99.729C90.6411 99.813 90.3786 99.855 90.1126 99.855C89.7836 99.855 89.4861 99.8025 89.2201 99.6975C88.9611 99.5925 88.7546 99.435 88.6006 99.225C88.4536 99.008 88.3801 98.742 88.3801 98.427C88.3801 98.035 88.5061 97.713 88.7581 97.461C89.0171 97.209 89.3811 97.0375 89.8501 96.9465L91.8871 96.5475L91.8766 97.335L90.3961 97.6395C90.1021 97.6955 89.8816 97.776 89.7346 97.881C89.5876 97.986 89.5141 98.14 89.5141 98.343C89.5141 98.539 89.5876 98.6965 89.7346 98.8155C89.8886 98.9275 90.0916 98.9835 90.3436 98.9835C90.5186 98.9835 90.6866 98.9625 90.8476 98.9205C91.0156 98.8785 91.1661 98.812 91.2991 98.721C91.4321 98.623 91.5336 98.5005 91.6036 98.3535C91.6806 98.1995 91.7191 98.0175 91.7191 97.8075V96.3795ZM96.9306 94.395C97.3506 94.395 97.7076 94.458 98.0016 94.584C98.3026 94.703 98.5546 94.8745 98.7576 95.0985C98.9606 95.3225 99.1146 95.578 99.2196 95.865L98.1591 96.285C98.0681 95.963 97.9211 95.718 97.7181 95.55C97.5221 95.375 97.2631 95.2875 96.9411 95.2875C96.6261 95.2875 96.3566 95.361 96.1326 95.508C95.9086 95.648 95.7371 95.8545 95.6181 96.1275C95.5061 96.4005 95.4501 96.7365 95.4501 97.1355C95.4501 97.5275 95.5096 97.86 95.6286 98.133C95.7476 98.406 95.9191 98.6125 96.1431 98.7525C96.3671 98.8925 96.6331 98.9625 96.9411 98.9625C97.1791 98.9625 97.3856 98.924 97.5606 98.847C97.7356 98.763 97.8791 98.6475 97.9911 98.5005C98.1101 98.3465 98.1906 98.161 98.2326 97.944L99.2511 98.2905C99.1531 98.6055 98.9991 98.882 98.7891 99.12C98.5861 99.351 98.3306 99.533 98.0226 99.666C97.7146 99.792 97.3611 99.855 96.9621 99.855C96.4441 99.855 95.9856 99.7465 95.5866 99.5295C95.1876 99.3125 94.8761 99.001 94.6521 98.595C94.4351 98.182 94.3266 97.692 94.3266 97.125C94.3266 96.558 94.4351 96.0715 94.6521 95.6655C94.8761 95.2525 95.1841 94.9375 95.5761 94.7205C95.9751 94.5035 96.4266 94.395 96.9306 94.395ZM102.092 92.9565V98.175C102.092 98.434 102.158 98.623 102.291 98.742C102.431 98.861 102.617 98.9205 102.848 98.9205C103.037 98.9205 103.201 98.8925 103.341 98.8365C103.481 98.7735 103.611 98.6895 103.73 98.5845L103.982 99.4035C103.821 99.5435 103.621 99.6555 103.383 99.7395C103.152 99.8165 102.893 99.855 102.606 99.855C102.305 99.855 102.029 99.806 101.777 99.708C101.525 99.61 101.329 99.4525 101.189 99.2355C101.049 99.0115 100.975 98.721 100.968 98.364V93.2715L102.092 92.9565ZM103.898 94.5V95.382H99.9601V94.5H103.898ZM105.576 93.618C105.331 93.618 105.142 93.5585 105.009 93.4395C104.883 93.3135 104.82 93.1385 104.82 92.9145C104.82 92.6905 104.883 92.519 105.009 92.4C105.142 92.281 105.331 92.2215 105.576 92.2215C105.814 92.2215 105.996 92.281 106.122 92.4C106.255 92.519 106.321 92.6905 106.321 92.9145C106.321 93.1385 106.255 93.3135 106.122 93.4395C105.996 93.5585 105.814 93.618 105.576 93.618ZM106.132 94.5V99.75H105.009V94.5H106.132ZM110.169 94.395C110.68 94.395 111.131 94.5035 111.523 94.7205C111.915 94.9375 112.22 95.2525 112.437 95.6655C112.661 96.0715 112.773 96.558 112.773 97.125C112.773 97.692 112.661 98.182 112.437 98.595C112.22 99.001 111.915 99.3125 111.523 99.5295C111.131 99.7465 110.68 99.855 110.169 99.855C109.658 99.855 109.206 99.7465 108.814 99.5295C108.422 99.3125 108.114 99.001 107.89 98.595C107.666 98.182 107.554 97.692 107.554 97.125C107.554 96.558 107.666 96.0715 107.89 95.6655C108.114 95.2525 108.422 94.9375 108.814 94.7205C109.206 94.5035 109.658 94.395 110.169 94.395ZM110.169 95.277C109.854 95.277 109.584 95.3505 109.36 95.4975C109.143 95.6375 108.975 95.844 108.856 96.117C108.737 96.39 108.678 96.726 108.678 97.125C108.678 97.517 108.737 97.853 108.856 98.133C108.975 98.406 109.143 98.616 109.36 98.763C109.584 98.903 109.854 98.973 110.169 98.973C110.484 98.973 110.75 98.903 110.967 98.763C111.184 98.616 111.352 98.406 111.471 98.133C111.59 97.853 111.649 97.517 111.649 97.125C111.649 96.726 111.59 96.39 111.471 96.117C111.352 95.844 111.184 95.6375 110.967 95.4975C110.75 95.3505 110.484 95.277 110.169 95.277ZM114.186 99.75V94.5H115.184L115.257 95.865L115.11 95.718C115.208 95.417 115.348 95.1685 115.53 94.9725C115.719 94.7695 115.94 94.6225 116.192 94.5315C116.451 94.4405 116.724 94.395 117.011 94.395C117.382 94.395 117.714 94.4685 118.008 94.6155C118.309 94.7555 118.547 94.969 118.722 95.256C118.897 95.543 118.985 95.907 118.985 96.348V99.75H117.861V96.6945C117.861 96.1765 117.753 95.8195 117.536 95.6235C117.326 95.4205 117.06 95.319 116.738 95.319C116.507 95.319 116.283 95.375 116.066 95.487C115.849 95.592 115.667 95.7635 115.52 96.0015C115.38 96.2395 115.31 96.558 115.31 96.957V99.75H114.186ZM122.682 99.855C122.157 99.855 121.678 99.7535 121.244 99.5505C120.81 99.3475 120.467 99.0605 120.215 98.6895L120.992 98.0175C121.146 98.3045 121.366 98.5355 121.653 98.7105C121.947 98.8785 122.297 98.9625 122.703 98.9625C123.025 98.9625 123.281 98.9065 123.47 98.7945C123.659 98.6825 123.753 98.525 123.753 98.322C123.753 98.189 123.708 98.0735 123.617 97.9755C123.533 97.8705 123.368 97.79 123.123 97.734L122.021 97.503C121.461 97.391 121.062 97.2125 120.824 96.9675C120.586 96.7155 120.467 96.397 120.467 96.012C120.467 95.725 120.551 95.459 120.719 95.214C120.887 94.969 121.132 94.773 121.454 94.626C121.783 94.472 122.175 94.395 122.63 94.395C123.155 94.395 123.603 94.4895 123.974 94.6785C124.345 94.8605 124.628 95.123 124.824 95.466L124.047 96.117C123.914 95.837 123.718 95.6305 123.459 95.4975C123.2 95.3575 122.931 95.2875 122.651 95.2875C122.427 95.2875 122.234 95.3155 122.073 95.3715C121.912 95.4275 121.79 95.5045 121.706 95.6025C121.622 95.7005 121.58 95.816 121.58 95.949C121.58 96.089 121.632 96.2115 121.737 96.3165C121.842 96.4215 122.031 96.502 122.304 96.558L123.501 96.81C124.005 96.908 124.359 97.076 124.562 97.314C124.772 97.545 124.877 97.8285 124.877 98.1645C124.877 98.5005 124.789 98.798 124.614 99.057C124.439 99.309 124.187 99.505 123.858 99.645C123.529 99.785 123.137 99.855 122.682 99.855Z" fill="#696969"/>
<path d="M62.3569 133.266C63.5719 133.266 64.2109 133.995 64.2109 134.814C64.2109 135.66 63.6889 136.281 63.0949 136.281V136.299C63.8779 136.299 64.3459 136.947 64.3459 137.703C64.3459 138.666 63.5269 139.386 62.2579 139.386C61.2499 139.386 60.5749 138.891 60.2059 137.964L60.8719 137.613C61.0879 138.279 61.4299 138.711 62.3119 138.711C63.1489 138.711 63.6079 138.243 63.5989 137.613C63.5899 136.884 63.1399 136.641 62.2309 136.641H61.9969V135.966H62.2309C63.0319 135.966 63.4549 135.651 63.4639 134.985C63.4729 134.292 63.0769 133.941 62.3659 133.941C61.6459 133.941 61.2499 134.301 61.1059 134.85L60.4309 134.535C60.7189 133.761 61.4479 133.266 62.3569 133.266ZM67.784 139.386C66.344 139.386 65.57 138.315 65.57 136.326C65.57 134.337 66.344 133.266 67.784 133.266C69.224 133.266 69.998 134.337 69.998 136.326C69.998 138.315 69.224 139.386 67.784 139.386ZM67.784 138.738C68.738 138.738 69.251 137.892 69.251 136.326C69.251 134.76 68.738 133.914 67.784 133.914C66.83 133.914 66.317 134.76 66.317 136.326C66.317 137.892 66.83 138.738 67.784 138.738ZM73.3826 139.386C71.9426 139.386 71.1686 138.315 71.1686 136.326C71.1686 134.337 71.9426 133.266 73.3826 133.266C74.8226 133.266 75.5966 134.337 75.5966 136.326C75.5966 138.315 74.8226 139.386 73.3826 139.386ZM73.3826 138.738C74.3366 138.738 74.8496 137.892 74.8496 136.326C74.8496 134.76 74.3366 133.914 73.3826 133.914C72.4286 133.914 71.9156 134.76 71.9156 136.326C71.9156 137.892 72.4286 138.738 73.3826 138.738Z" fill="#939393"/>
<path d="M60.4039 180.296V179.711C62.7799 177.965 63.5179 177.182 63.5179 176.129C63.5179 175.427 63.0319 174.941 62.2579 174.941C61.4389 174.941 60.9259 175.517 60.8449 176.408L60.2149 176.03C60.3679 174.995 61.0789 174.266 62.2849 174.266C63.4999 174.266 64.2739 175.031 64.2739 176.129C64.2739 177.245 63.5539 178.226 61.4299 179.639V179.648C61.6279 179.639 62.1409 179.621 62.3209 179.621H64.3999V180.296H60.4039ZM67.784 180.386C66.344 180.386 65.57 179.315 65.57 177.326C65.57 175.337 66.344 174.266 67.784 174.266C69.224 174.266 69.998 175.337 69.998 177.326C69.998 179.315 69.224 180.386 67.784 180.386ZM67.784 179.738C68.738 179.738 69.251 178.892 69.251 177.326C69.251 175.76 68.738 174.914 67.784 174.914C66.83 174.914 66.317 175.76 66.317 177.326C66.317 178.892 66.83 179.738 67.784 179.738ZM73.3826 180.386C71.9426 180.386 71.1686 179.315 71.1686 177.326C71.1686 175.337 71.9426 174.266 73.3826 174.266C74.8226 174.266 75.5966 175.337 75.5966 177.326C75.5966 179.315 74.8226 180.386 73.3826 180.386ZM73.3826 179.738C74.3366 179.738 74.8496 178.892 74.8496 177.326C74.8496 175.76 74.3366 174.914 73.3826 174.914C72.4286 174.914 71.9156 175.76 71.9156 177.326C71.9156 178.892 72.4286 179.738 73.3826 179.738Z" fill="#939393"/>
<path d="M63.8709 215.356H64.5009V221.296H63.7809V216.94C63.7809 216.742 63.7899 216.499 63.7989 216.247C63.3849 216.643 62.8179 216.949 62.2599 217.084L62.0709 216.427C62.4939 216.373 63.5379 215.815 63.8709 215.356ZM68.2195 221.386C66.7795 221.386 66.0055 220.315 66.0055 218.326C66.0055 216.337 66.7795 215.266 68.2195 215.266C69.6595 215.266 70.4335 216.337 70.4335 218.326C70.4335 220.315 69.6595 221.386 68.2195 221.386ZM68.2195 220.738C69.1735 220.738 69.6865 219.892 69.6865 218.326C69.6865 216.76 69.1735 215.914 68.2195 215.914C67.2655 215.914 66.7525 216.76 66.7525 218.326C66.7525 219.892 67.2655 220.738 68.2195 220.738ZM73.8181 221.386C72.3781 221.386 71.6041 220.315 71.6041 218.326C71.6041 216.337 72.3781 215.266 73.8181 215.266C75.2581 215.266 76.0321 216.337 76.0321 218.326C76.0321 220.315 75.2581 221.386 73.8181 221.386ZM73.8181 220.738C74.7721 220.738 75.2851 219.892 75.2851 218.326C75.2851 216.76 74.7721 215.914 73.8181 215.914C72.8641 215.914 72.3511 216.76 72.3511 218.326C72.3511 219.892 72.8641 220.738 73.8181 220.738Z" fill="#939393"/>
<path d="M73.5369 262.386C72.0969 262.386 71.3229 261.315 71.3229 259.326C71.3229 257.337 72.0969 256.266 73.5369 256.266C74.9769 256.266 75.7509 257.337 75.7509 259.326C75.7509 261.315 74.9769 262.386 73.5369 262.386ZM73.5369 261.738C74.4909 261.738 75.0039 260.892 75.0039 259.326C75.0039 257.76 74.4909 256.914 73.5369 256.914C72.5829 256.914 72.0699 257.76 72.0699 259.326C72.0699 260.892 72.5829 261.738 73.5369 261.738Z" fill="#939393"/>
<path d="M98.4879 136.621H512.901" stroke="#F2F4F5" stroke-width="0.75" stroke-linecap="round"/>
<path d="M98.4879 177.871H512.901" stroke="#F2F4F5" stroke-width="0.75" stroke-linecap="round"/>
<path d="M98.4879 219.121H512.901" stroke="#F2F4F5" stroke-width="0.75" stroke-linecap="round"/>
<path d="M98.4879 260.371H512.901" stroke="#F2F4F5" stroke-width="0.75" stroke-linecap="round"/>
<path d="M108.06 176.836V256.408V260.592H501.447V147.656L453.701 158.512C452.321 158.826 450.993 159.333 449.755 160.019L394.021 190.913C392.725 191.631 391.33 192.154 389.881 192.463L351.63 200.63C347.648 201.48 343.492 200.675 340.116 198.4L298.096 170.086C296.488 169.003 294.686 168.242 292.789 167.844L251.589 159.214C248.908 158.652 246.432 157.367 244.429 155.498L222.618 135.141C215.103 128.127 202.921 130.578 198.704 139.952L166.398 211.756C161.898 221.759 148.535 223.707 141.366 215.406L108.06 176.836Z" fill="url(#paint0_linear_11_674)"/>
<path fill-rule="evenodd" clip-rule="evenodd" d="M427.138 113.25C418.854 113.25 412.138 119.966 412.138 128.25C412.138 136.534 418.854 143.25 427.138 143.25H444.235L449.638 149.25L455.041 143.25H472.138C480.422 143.25 487.138 136.534 487.138 128.25C487.138 119.966 480.422 113.25 472.138 113.25H427.138Z" fill="#AEDB04"/>
<path d="M109.137 178.192L141.537 215.547C148.727 223.838 162.094 221.853 166.567 211.832L198.661 139.913C202.871 130.479 215.136 128.026 222.651 135.115L244.554 155.775C246.599 157.704 249.147 159.02 251.904 159.572L293.317 167.855C295.312 168.254 297.205 169.054 298.881 170.208L340.398 198.788C343.855 201.167 348.15 201.99 352.242 201.056L389.898 192.459C391.295 192.14 392.639 191.623 393.889 190.923L449.441 159.814C450.728 159.094 452.114 158.567 453.554 158.251L500.702 147.9" stroke="#0096C4" stroke-width="1.5" stroke-linecap="round"/>
<circle cx="449.638" cy="159.162" r="6" fill="#AEDB04" stroke="white" stroke-width="3"/>
<path d="M110.136 279.341L109.506 277.694H106.815L106.185 279.341H105.429L107.742 273.401H108.597L110.901 279.341H110.136ZM107.076 277.019H109.245L108.444 274.913L108.165 274.085H108.147L107.886 274.886L107.076 277.019ZM114.187 274.751C115.438 274.751 116.239 275.624 116.239 277.091C116.239 278.558 115.438 279.431 114.187 279.431C113.512 279.431 112.972 279.107 112.693 278.639V281.231H111.973V274.841H112.603L112.648 275.624C112.909 275.111 113.476 274.751 114.187 274.751ZM114.106 278.801C114.988 278.801 115.519 278.135 115.519 277.091C115.519 276.047 114.988 275.381 114.106 275.381C113.251 275.381 112.693 276.02 112.693 277.037V277.145C112.693 278.162 113.251 278.801 114.106 278.801ZM119.766 274.751C119.919 274.751 120.126 274.769 120.261 274.841L120.117 275.543C119.982 275.471 119.784 275.426 119.55 275.426C119.01 275.426 118.362 275.903 118.362 276.911V279.341H117.642V274.841H118.227L118.326 275.579C118.578 275.03 119.064 274.751 119.766 274.751Z" fill="#939393"/>
<path d="M159.409 273.401V279.341H158.725V275.606L158.806 274.04H158.797L156.844 279.341H156.232L154.279 274.04H154.27L154.351 275.606V279.341H153.667V273.401H154.774L156.079 277.01L156.529 278.495H156.547L157.006 277.019L158.302 273.401H159.409ZM164.85 278.819C164.967 278.819 165.102 278.801 165.21 278.774L165.165 279.341C165.039 279.386 164.85 279.431 164.625 279.431C164.184 279.431 163.896 279.269 163.815 278.765C163.527 279.188 162.942 279.431 162.366 279.431C161.52 279.431 160.836 279.035 160.836 278.225C160.836 277.55 161.43 277.019 162.591 276.821L163.788 276.623V276.371C163.788 275.777 163.41 275.381 162.735 275.381C162.141 275.381 161.691 275.669 161.448 276.236L160.917 275.849C161.151 275.183 161.862 274.751 162.735 274.751C163.761 274.751 164.508 275.237 164.508 276.281V278.495C164.508 278.711 164.598 278.819 164.85 278.819ZM162.402 278.801C163.122 278.801 163.788 278.423 163.788 277.829V277.208L162.78 277.397C161.988 277.541 161.583 277.802 161.583 278.225C161.583 278.603 161.889 278.801 162.402 278.801ZM169.819 274.841L167.704 280.097C167.353 280.979 166.948 281.276 166.282 281.276C165.832 281.276 165.544 281.168 165.292 280.898L165.544 280.286C165.751 280.574 166.021 280.646 166.273 280.646C166.588 280.646 166.867 280.511 167.092 279.917L167.326 279.332L165.445 274.841H166.264L167.389 277.775L167.668 278.576L167.992 277.685L169.045 274.841H169.819Z" fill="#939393"/>
<path d="M206.38 273.401V277.307C206.38 278.639 205.624 279.431 204.364 279.431C203.032 279.431 202.384 278.63 202.618 277.379L203.284 277.244C203.149 278.261 203.437 278.756 204.337 278.756C205.354 278.756 205.66 278.189 205.66 277.127V273.401H206.38ZM211.236 274.841H211.956V279.341H211.326L211.281 278.657C210.966 279.197 210.39 279.431 209.67 279.431C208.779 279.431 208.014 278.972 208.014 277.784V274.841H208.734V277.595C208.734 278.522 209.148 278.801 209.796 278.801C210.561 278.801 211.236 278.351 211.236 277.289V274.841ZM215.818 274.751C216.781 274.751 217.573 275.3 217.573 276.461V279.341H216.853V276.713C216.853 275.714 216.367 275.381 215.746 275.381C215.089 275.381 214.351 275.795 214.351 276.947V279.341H213.631V274.841H214.261L214.306 275.543C214.621 274.976 215.197 274.751 215.818 274.751Z" fill="#939393"/>
<path d="M254.88 273.401V277.307C254.88 278.639 254.124 279.431 252.864 279.431C251.532 279.431 250.884 278.63 251.118 277.379L251.784 277.244C251.649 278.261 251.937 278.756 252.837 278.756C253.854 278.756 254.16 278.189 254.16 277.127V273.401H254.88ZM259.736 274.841H260.456V279.341H259.826L259.781 278.657C259.466 279.197 258.89 279.431 258.17 279.431C257.279 279.431 256.514 278.972 256.514 277.784V274.841H257.234V277.595C257.234 278.522 257.648 278.801 258.296 278.801C259.061 278.801 259.736 278.351 259.736 277.289V274.841ZM262.815 272.771V278.135C262.815 278.594 262.932 278.738 263.301 278.738C263.544 278.738 263.697 278.711 263.958 278.612L263.841 279.305C263.652 279.386 263.409 279.431 263.175 279.431C262.446 279.431 262.095 279.044 262.095 278.225V272.771H262.815Z" fill="#939393"/>
<path d="M301.136 279.341L300.506 277.694H297.815L297.185 279.341H296.429L298.742 273.401H299.597L301.901 279.341H301.136ZM298.076 277.019H300.245L299.444 274.913L299.165 274.085H299.147L298.886 274.886L298.076 277.019ZM306.071 274.841H306.791V279.341H306.161L306.116 278.657C305.801 279.197 305.225 279.431 304.505 279.431C303.614 279.431 302.849 278.972 302.849 277.784V274.841H303.569V277.595C303.569 278.522 303.983 278.801 304.631 278.801C305.396 278.801 306.071 278.351 306.071 277.289V274.841ZM310.977 278.765C311.832 278.765 312.336 279.188 312.336 279.836C312.336 280.727 311.328 281.276 310.113 281.276C308.691 281.276 308.043 280.763 308.043 280.088C308.043 279.674 308.34 279.35 308.835 279.215C308.493 279.053 308.223 278.783 308.223 278.387C308.223 277.919 308.502 277.64 308.898 277.505C308.466 277.235 308.241 276.794 308.241 276.272C308.241 275.381 309.006 274.751 310.086 274.751C310.428 274.751 310.734 274.814 311.004 274.931C311.175 274.31 311.598 274.013 312.273 274.013L312.435 274.643C311.832 274.643 311.49 274.814 311.364 275.138C311.724 275.408 311.931 275.804 311.931 276.272C311.931 277.163 311.166 277.793 310.086 277.793C309.825 277.793 309.591 277.766 309.393 277.712C309.033 277.793 308.889 277.973 308.889 278.279C308.889 278.594 309.132 278.765 309.483 278.765H310.977ZM310.086 275.336C309.465 275.336 308.988 275.714 308.988 276.272C308.988 276.83 309.465 277.208 310.086 277.208C310.707 277.208 311.184 276.83 311.184 276.272C311.184 275.714 310.707 275.336 310.086 275.336ZM310.194 280.673C311.148 280.673 311.67 280.313 311.67 279.917C311.67 279.593 311.454 279.386 310.779 279.386H309.573C309.006 279.386 308.709 279.602 308.709 279.944C308.709 280.385 309.204 280.673 310.194 280.673Z" fill="#939393"/>
<path d="M347.575 273.311C348.664 273.311 349.411 273.743 349.87 274.571L349.249 275.075C348.889 274.292 348.457 273.986 347.584 273.986C346.639 273.986 346.117 274.427 346.117 274.994C346.117 275.552 346.513 275.831 347.764 276.047C349.357 276.317 349.924 276.821 349.924 277.739C349.924 278.756 349.015 279.431 347.629 279.431C346.369 279.431 345.541 278.882 345.127 278.144L345.748 277.64C346.063 278.324 346.675 278.756 347.647 278.756C348.565 278.756 349.177 278.414 349.177 277.775C349.177 277.262 348.79 276.965 347.539 276.749C345.937 276.47 345.361 275.984 345.361 275.075C345.361 274.121 346.198 273.311 347.575 273.311ZM355.158 276.857C355.158 277.064 355.14 277.235 355.122 277.361H351.729C351.819 278.27 352.368 278.801 353.196 278.801C353.853 278.801 354.303 278.567 354.465 278.135L355.068 278.45C354.726 279.062 354.168 279.431 353.196 279.431C351.837 279.431 351.018 278.549 351.018 277.091C351.018 275.633 351.783 274.751 353.142 274.751C354.447 274.751 355.158 275.696 355.158 276.857ZM353.142 275.381C352.341 275.381 351.846 275.876 351.738 276.722H354.465C354.366 275.894 353.907 275.381 353.142 275.381ZM358.741 274.751C359.992 274.751 360.793 275.624 360.793 277.091C360.793 278.558 359.992 279.431 358.741 279.431C358.066 279.431 357.526 279.107 357.247 278.639V281.231H356.527V274.841H357.157L357.202 275.624C357.463 275.111 358.03 274.751 358.741 274.751ZM358.66 278.801C359.542 278.801 360.073 278.135 360.073 277.091C360.073 276.047 359.542 275.381 358.66 275.381C357.805 275.381 357.247 276.02 357.247 277.037V277.145C357.247 278.162 357.805 278.801 358.66 278.801Z" fill="#939393"/>
<path d="M396.561 273.311C398.253 273.311 399.315 274.49 399.315 276.371C399.315 278.252 398.253 279.431 396.561 279.431C394.869 279.431 393.807 278.252 393.807 276.371C393.807 274.49 394.869 273.311 396.561 273.311ZM396.561 273.986C395.328 273.986 394.563 274.877 394.563 276.371C394.563 277.865 395.328 278.756 396.561 278.756C397.794 278.756 398.559 277.865 398.559 276.371C398.559 274.877 397.794 273.986 396.561 273.986ZM402.663 274.751C403.59 274.751 404.193 275.21 404.526 275.948L403.842 276.272C403.653 275.696 403.266 275.381 402.645 275.381C401.745 275.381 401.205 276.02 401.205 277.091C401.205 278.162 401.745 278.801 402.645 278.801C403.347 278.801 403.77 278.468 403.905 277.874L404.571 278.108C404.265 278.936 403.617 279.431 402.663 279.431C401.304 279.431 400.485 278.549 400.485 277.091C400.485 275.633 401.304 274.751 402.663 274.751ZM408.346 278.423L408.598 279.026C408.319 279.278 407.932 279.431 407.437 279.431C406.771 279.431 406.195 279.098 406.186 278.225V275.462H405.286V274.841H406.186V273.761L406.906 273.563V274.841H408.571V275.462H406.906V278.099C406.906 278.54 407.185 278.756 407.581 278.756C407.905 278.756 408.139 278.63 408.346 278.423Z" fill="#939393"/>
<path d="M446.329 273.401V279.341H445.438L442.954 275.363L442.324 274.193H442.315L442.351 275.147V279.341H441.667V273.401H442.558L445.033 277.361L445.672 278.549H445.681L445.645 277.595V273.401H446.329ZM449.961 274.751C451.32 274.751 452.139 275.633 452.139 277.091C452.139 278.549 451.32 279.431 449.961 279.431C448.602 279.431 447.783 278.549 447.783 277.091C447.783 275.633 448.602 274.751 449.961 274.751ZM449.961 275.372C449.052 275.372 448.503 276.02 448.503 277.091C448.503 278.162 449.052 278.81 449.961 278.81C450.87 278.81 451.419 278.162 451.419 277.091C451.419 276.02 450.87 275.372 449.961 275.372ZM456.516 274.841H457.272L455.4 279.341H454.68L452.808 274.841H453.627L455.049 278.612L456.516 274.841Z" fill="#939393"/>
<path d="M492.084 273.401C493.947 273.401 495.072 274.463 495.072 276.371C495.072 278.279 493.947 279.341 492.084 279.341H490.167V273.401H492.084ZM492.156 278.666C493.515 278.666 494.316 277.811 494.316 276.371C494.316 274.931 493.515 274.076 492.156 274.076H490.887V278.666H492.156ZM500.379 276.857C500.379 277.064 500.361 277.235 500.343 277.361H496.95C497.04 278.27 497.589 278.801 498.417 278.801C499.074 278.801 499.524 278.567 499.686 278.135L500.289 278.45C499.947 279.062 499.389 279.431 498.417 279.431C497.058 279.431 496.239 278.549 496.239 277.091C496.239 275.633 497.004 274.751 498.363 274.751C499.668 274.751 500.379 275.696 500.379 276.857ZM498.363 275.381C497.562 275.381 497.067 275.876 496.959 276.722H499.686C499.587 275.894 499.128 275.381 498.363 275.381ZM503.646 274.751C504.573 274.751 505.176 275.21 505.509 275.948L504.825 276.272C504.636 275.696 504.249 275.381 503.628 275.381C502.728 275.381 502.188 276.02 502.188 277.091C502.188 278.162 502.728 278.801 503.628 278.801C504.33 278.801 504.753 278.468 504.888 277.874L505.554 278.108C505.248 278.936 504.6 279.431 503.646 279.431C502.287 279.431 501.468 278.549 501.468 277.091C501.468 275.633 502.287 274.751 503.646 274.751Z" fill="#939393"/>
</g>
<defs>
<filter id="filter0_d_11_674" x="0.987885" y="0" width="568.5" height="353.25" filterUnits="userSpaceOnUse" color-interpolation-filters="sRGB">
<feFlood flood-opacity="0" result="BackgroundImageFix"/>
<feColorMatrix in="SourceAlpha" type="matrix" values="0 0 0 0 0 0 0 0 0 0 0 0 0 0 0 0 0 0 127 0" result="hardAlpha"/>
<feOffset dx="4" dy="16"/>
<feGaussianBlur stdDeviation="15"/>
<feComposite in2="hardAlpha" operator="out"/>
<feColorMatrix type="matrix" values="0 0 0 0 0 0 0 0 0 0.388235 0 0 0 0 0.505882 0 0 0 0.5 0"/>
<feBlend mode="normal" in2="BackgroundImageFix" result="effect1_dropShadow_11_674"/>
<feBlend mode="normal" in="SourceGraphic" in2="effect1_dropShadow_11_674" result="shape"/>
</filter>
<linearGradient id="paint0_linear_11_674" x1="304.753" y1="120.845" x2="304.753" y2="260.592" gradientUnits="userSpaceOnUse">
<stop stop-color="#E6EDFF"/>
<stop offset="0.962382" stop-color="#E3EBFF" stop-opacity="0"/>
</linearGradient>
<clipPath id="clip0_11_674">
<rect width="9" height="9" fill="white" transform="translate(483.238 48.75)"/>
</clipPath>
</defs>
</svg>
