<svg width="303" height="210" viewBox="0 0 303 210" fill="none" xmlns="http://www.w3.org/2000/svg">
<g filter="url(#filter0_d_11_888)">
<rect x="26.6875" y="14.5156" width="241.625" height="149.344" rx="11" fill="#AEDB04" shape-rendering="crispEdges"/>
<rect x="29.6875" y="17.5156" width="235.625" height="143.344" rx="10" fill="white"/>
<path d="M135.405 39.5156V38.0756C135.405 36.6581 136.541 35.8369 137.565 35.1394C138.375 34.5656 139.118 34.1156 139.118 33.4856C139.118 32.9456 138.724 32.5069 137.993 32.5069C137.273 32.5069 136.834 32.9906 136.553 33.6769L135.236 33.0131C135.742 31.8881 136.654 31.1906 138.004 31.1906C139.669 31.1906 140.67 32.2031 140.67 33.4969C140.67 34.7906 139.613 35.5219 138.623 36.1856C137.779 36.7594 136.935 37.2769 136.935 38.0531H140.636V39.5156H135.405ZM144.328 38.1094C145.149 38.1094 145.599 37.5694 145.599 36.8944V33.9806C145.599 33.2044 145.16 32.6981 144.35 32.6981C143.529 32.6981 143.079 33.2606 143.079 33.9806V36.8831C143.079 37.6031 143.506 38.1094 144.328 38.1094ZM144.339 39.6281C142.55 39.6281 141.549 38.5256 141.549 36.9506V33.9356C141.549 32.3719 142.685 31.1906 144.339 31.1906C146.038 31.1906 147.129 32.4169 147.129 33.9244V36.9506C147.129 38.5594 146.105 39.6281 144.339 39.6281ZM148.05 39.5156V38.0756C148.05 36.6581 149.187 35.8369 150.21 35.1394C151.02 34.5656 151.763 34.1156 151.763 33.4856C151.763 32.9456 151.369 32.5069 150.638 32.5069C149.918 32.5069 149.479 32.9906 149.198 33.6769L147.882 33.0131C148.388 31.8881 149.299 31.1906 150.649 31.1906C152.314 31.1906 153.315 32.2031 153.315 33.4969C153.315 34.7906 152.258 35.5219 151.268 36.1856C150.424 36.7594 149.58 37.2769 149.58 38.0531H153.282V39.5156H148.05ZM154.082 39.5156V38.0756C154.082 36.6581 155.218 35.8369 156.242 35.1394C157.052 34.5656 157.794 34.1156 157.794 33.4856C157.794 32.9456 157.401 32.5069 156.669 32.5069C155.949 32.5069 155.511 32.9906 155.229 33.6769L153.913 33.0131C154.419 31.8881 155.331 31.1906 156.681 31.1906C158.346 31.1906 159.347 32.2031 159.347 33.4969C159.347 34.7906 158.289 35.5219 157.299 36.1856C156.456 36.7594 155.612 37.2769 155.612 38.0531H159.313V39.5156H154.082Z" fill="#939393"/>
<rect x="45.3896" y="80.8906" width="6.19028" height="55.9688" rx="2.8125" fill="#00A8DC"/>
<rect x="63.3923" y="96.9219" width="6.19028" height="39.9375" rx="2.8125" fill="#AEDB04"/>
<rect x="81.3951" y="115.484" width="6.19028" height="21.375" rx="2.8125" fill="#00A8DC"/>
<rect x="99.3979" y="86.7969" width="6.19028" height="50.0625" rx="2.8125" fill="#AEDB04"/>
<rect x="117.401" y="50.5156" width="6.19028" height="86.3438" rx="2.8125" fill="#00A8DC"/>
<rect x="135.403" y="65.7031" width="6.19028" height="71.1562" rx="2.8125" fill="#AEDB04"/>
<rect x="153.406" y="55.5781" width="6.19028" height="81.2812" rx="2.8125" fill="#00A8DC"/>
<rect x="171.409" y="86.7969" width="6.19028" height="50.0625" rx="2.8125" fill="#AEDB04"/>
<rect x="189.412" y="86.7969" width="6.19028" height="50.0625" rx="2.8125" fill="#00A8DC"/>
<rect x="207.415" y="86.7969" width="6.19028" height="50.0625" rx="2.8125" fill="#AEDB04"/>
<rect x="225.417" y="86.7969" width="6.19028" height="50.0625" rx="2.8125" fill="#00A8DC"/>
<rect x="243.42" y="108.734" width="6.19028" height="28.125" rx="2.8125" fill="#AEDB04"/>
<path d="M41.0769 148.916C40.4075 148.916 39.9294 148.556 39.7944 147.987L40.5481 147.74C40.61 148.004 40.8013 148.201 41.0656 148.201C41.3806 148.201 41.51 147.965 41.51 147.678V144.753H42.275V147.611C42.275 148.443 41.8475 148.916 41.0769 148.916ZM44.238 148.927C43.4449 148.927 42.618 148.297 42.618 147.217C42.618 146.126 43.4167 145.501 44.2492 145.501C44.6824 145.501 45.0649 145.676 45.3067 145.962V145.569H46.0661V148.859H45.3067V148.432C45.0649 148.741 44.6711 148.927 44.238 148.927ZM44.3617 148.229C44.9299 148.229 45.3461 147.774 45.3461 147.206C45.3461 146.643 44.9299 146.193 44.3617 146.193C43.7992 146.193 43.3661 146.637 43.3661 147.206C43.3661 147.779 43.7992 148.229 44.3617 148.229ZM46.5261 148.859V145.569H47.2799V145.974C47.4993 145.687 47.8368 145.501 48.2643 145.501C49.0911 145.501 49.5693 146.013 49.5693 146.907V148.859H48.7986V146.986C48.7986 146.474 48.5511 146.159 48.0561 146.159C47.623 146.159 47.2855 146.474 47.2855 147.054V148.859H46.5261Z" fill="#939393"/>
<path d="M58.7988 148.859V144.753H61.1219V145.484H59.5638V146.429H61.1219V147.161H59.5638V148.859H58.7988ZM63.1487 148.927C62.1137 148.927 61.4106 148.173 61.4106 147.222C61.4106 146.261 62.1587 145.501 63.1206 145.501C64.0993 145.501 64.8137 146.221 64.8137 147.194V147.481H62.1362C62.2431 147.948 62.6087 148.257 63.1487 148.257C63.5762 148.257 63.9025 148.033 64.06 147.678L64.6843 148.038C64.3975 148.572 63.8912 148.927 63.1487 148.927ZM63.1206 146.171C62.665 146.171 62.3106 146.441 62.1756 146.846H64.0431C63.9306 146.401 63.5931 146.171 63.1206 146.171ZM66.9877 148.927C66.5377 148.927 66.1496 148.747 65.9077 148.432V148.859H65.1539V144.697H65.9133V145.985C66.1439 145.692 66.5321 145.501 66.9764 145.501C67.8033 145.501 68.5964 146.126 68.5964 147.217C68.5964 148.297 67.7752 148.927 66.9877 148.927ZM66.8583 148.229C67.4152 148.229 67.8483 147.779 67.8483 147.206C67.8483 146.637 67.4152 146.193 66.8583 146.193C66.2958 146.193 65.8796 146.643 65.8796 147.206C65.8796 147.774 66.2958 148.229 66.8583 148.229Z" fill="#939393"/>
<path d="M77.6738 148.859V144.753H78.4331L79.6763 146.48L80.97 144.753H81.6956V148.859H80.9306V145.979L79.6706 147.678L78.4388 146.007V148.859H77.6738ZM83.6579 148.927C82.8648 148.927 82.0379 148.297 82.0379 147.217C82.0379 146.126 82.8367 145.501 83.6692 145.501C84.1023 145.501 84.4848 145.676 84.7267 145.962V145.569H85.486V148.859H84.7267V148.432C84.4848 148.741 84.091 148.927 83.6579 148.927ZM83.7817 148.229C84.3498 148.229 84.766 147.774 84.766 147.206C84.766 146.643 84.3498 146.193 83.7817 146.193C83.2192 146.193 82.786 146.637 82.786 147.206C82.786 147.779 83.2192 148.229 83.7817 148.229ZM85.9461 148.859V145.569H86.6998V146.058C86.8517 145.732 87.1329 145.569 87.5436 145.569C87.7854 145.569 87.9711 145.625 88.1229 145.709L87.8361 146.429C87.7236 146.356 87.5998 146.3 87.3804 146.3C86.9361 146.3 86.7054 146.536 86.7054 147.104V148.859H85.9461Z" fill="#939393"/>
<path d="M96.3969 148.859L97.8594 144.753H98.63L100.093 148.859H99.2938L99.0406 148.128H97.4488L97.1956 148.859H96.3969ZM98.2475 145.839L97.7075 147.397H98.7875L98.2475 145.839ZM102.194 148.927C101.744 148.927 101.35 148.764 101.12 148.471V150.373H100.366V145.569H101.12V146.007C101.35 145.698 101.739 145.501 102.189 145.501C103.015 145.501 103.809 146.126 103.809 147.217C103.809 148.297 102.987 148.927 102.194 148.927ZM102.07 148.229C102.627 148.229 103.06 147.779 103.06 147.206C103.06 146.637 102.627 146.193 102.07 146.193C101.502 146.193 101.092 146.643 101.092 147.206C101.092 147.774 101.502 148.229 102.07 148.229ZM104.123 148.859V145.569H104.877V146.058C105.029 145.732 105.31 145.569 105.721 145.569C105.963 145.569 106.148 145.625 106.3 145.709L106.013 146.429C105.901 146.356 105.777 146.3 105.558 146.3C105.113 146.3 104.883 146.536 104.883 147.104V148.859H104.123Z" fill="#939393"/>
<path d="M115.424 148.859V144.753H116.183L117.426 146.48L118.72 144.753H119.446V148.859H118.681V145.979L117.421 147.678L116.189 146.007V148.859H115.424ZM121.408 148.927C120.615 148.927 119.788 148.297 119.788 147.217C119.788 146.126 120.587 145.501 121.419 145.501C121.852 145.501 122.235 145.676 122.477 145.962V145.569H123.236V148.859H122.477V148.432C122.235 148.741 121.841 148.927 121.408 148.927ZM121.532 148.229C122.1 148.229 122.516 147.774 122.516 147.206C122.516 146.643 122.1 146.193 121.532 146.193C120.969 146.193 120.536 146.637 120.536 147.206C120.536 147.779 120.969 148.229 121.532 148.229ZM124.141 150.378L124.833 148.696L123.483 145.569H124.293L125.21 147.785L126.076 145.569H126.875L124.912 150.378H124.141Z" fill="#939393"/>
<path d="M136.452 148.916C135.783 148.916 135.304 148.556 135.169 147.987L135.923 147.74C135.985 148.004 136.176 148.201 136.441 148.201C136.756 148.201 136.885 147.965 136.885 147.678V144.753H137.65V147.611C137.65 148.443 137.223 148.916 136.452 148.916ZM141.064 145.569V148.859H140.31V148.482C140.102 148.758 139.787 148.927 139.365 148.927C138.578 148.927 138.1 148.415 138.1 147.521V145.569H138.87V147.442C138.87 147.954 139.095 148.269 139.574 148.269C139.995 148.269 140.305 147.954 140.305 147.374V145.569H141.064ZM141.533 148.859V145.569H142.287V145.974C142.506 145.687 142.844 145.501 143.271 145.501C144.098 145.501 144.576 146.013 144.576 146.907V148.859H143.806V146.986C143.806 146.474 143.558 146.159 143.063 146.159C142.63 146.159 142.292 146.474 142.292 147.054V148.859H141.533Z" fill="#939393"/>
<path d="M154.327 148.916C153.658 148.916 153.179 148.556 153.044 147.987L153.798 147.74C153.86 148.004 154.051 148.201 154.316 148.201C154.631 148.201 154.76 147.965 154.76 147.678V144.753H155.525V147.611C155.525 148.443 155.098 148.916 154.327 148.916ZM158.939 145.569V148.859H158.185V148.482C157.977 148.758 157.662 148.927 157.24 148.927C156.453 148.927 155.975 148.415 155.975 147.521V145.569H156.745V147.442C156.745 147.954 156.97 148.269 157.449 148.269C157.87 148.269 158.18 147.954 158.18 147.374V145.569H158.939ZM159.381 148.859V144.697H160.146V148.859H159.381Z" fill="#939393"/>
<path d="M168.897 148.859L170.359 144.753H171.13L172.593 148.859H171.794L171.541 148.128H169.949L169.696 148.859H168.897ZM170.748 145.839L170.208 147.397H171.288L170.748 145.839ZM175.66 145.569V148.859H174.906V148.482C174.698 148.758 174.383 148.927 173.961 148.927C173.174 148.927 172.696 148.415 172.696 147.521V145.569H173.466V147.442C173.466 147.954 173.691 148.269 174.17 148.269C174.591 148.269 174.901 147.954 174.901 147.374V145.569H175.66ZM178.689 148.803V148.421C178.447 148.736 178.059 148.927 177.615 148.927C176.822 148.927 175.995 148.297 175.995 147.217C175.995 146.126 176.793 145.501 177.626 145.501C178.059 145.501 178.442 145.692 178.683 145.991V145.569H179.443V148.775C179.443 149.698 178.852 150.451 177.744 150.451C176.889 150.451 176.355 150.052 176.057 149.506L176.732 149.096C176.973 149.54 177.232 149.754 177.755 149.754C178.329 149.754 178.689 149.304 178.689 148.803ZM177.738 148.229C178.307 148.229 178.723 147.774 178.723 147.206C178.723 146.643 178.307 146.193 177.738 146.193C177.176 146.193 176.743 146.637 176.743 147.206C176.743 147.779 177.176 148.229 177.738 148.229Z" fill="#939393"/>
<path d="M189.308 148.916C188.571 148.916 188.081 148.601 187.704 148.179L188.402 147.627C188.61 147.987 188.925 148.184 189.302 148.184C189.707 148.184 189.926 147.92 189.926 147.633C189.926 147.29 189.504 147.177 189.071 147.042C188.514 146.862 187.907 146.654 187.907 145.872C187.907 145.214 188.481 144.697 189.268 144.697C189.926 144.697 190.314 144.95 190.646 145.293L190.016 145.771C189.842 145.507 189.594 145.377 189.274 145.377C188.897 145.377 188.7 145.58 188.7 145.844C188.7 146.176 189.088 146.272 189.538 146.424C190.095 146.604 190.725 146.851 190.725 147.639C190.725 148.286 190.208 148.916 189.308 148.916ZM192.79 148.927C191.755 148.927 191.052 148.173 191.052 147.222C191.052 146.261 191.8 145.501 192.762 145.501C193.741 145.501 194.455 146.221 194.455 147.194V147.481H191.778C191.884 147.948 192.25 148.257 192.79 148.257C193.218 148.257 193.544 148.033 193.701 147.678L194.326 148.038C194.039 148.572 193.533 148.927 192.79 148.927ZM192.762 146.171C192.306 146.171 191.952 146.441 191.817 146.846H193.684C193.572 146.401 193.234 146.171 192.762 146.171ZM196.623 148.927C196.173 148.927 195.78 148.764 195.549 148.471V150.373H194.795V145.569H195.549V146.007C195.78 145.698 196.168 145.501 196.618 145.501C197.445 145.501 198.238 146.126 198.238 147.217C198.238 148.297 197.417 148.927 196.623 148.927ZM196.5 148.229C197.057 148.229 197.49 147.779 197.49 147.206C197.49 146.637 197.057 146.193 196.5 146.193C195.932 146.193 195.521 146.643 195.521 147.206C195.521 147.774 195.932 148.229 196.5 148.229Z" fill="#939393"/>
<path d="M208.784 148.916C207.614 148.916 206.686 147.976 206.686 146.806C206.686 145.642 207.614 144.697 208.784 144.697C209.954 144.697 210.888 145.642 210.888 146.806C210.888 147.976 209.954 148.916 208.784 148.916ZM208.784 148.162C209.532 148.162 210.129 147.554 210.129 146.806C210.129 146.058 209.532 145.451 208.784 145.451C208.036 145.451 207.446 146.058 207.446 146.806C207.446 147.554 208.036 148.162 208.784 148.162ZM212.829 148.927C211.867 148.927 211.119 148.162 211.119 147.217C211.119 146.255 211.867 145.501 212.829 145.501C213.566 145.501 214.145 145.923 214.398 146.519L213.718 146.806C213.566 146.446 213.24 146.216 212.835 146.216C212.278 146.216 211.861 146.66 211.861 147.217C211.861 147.762 212.278 148.212 212.84 148.212C213.268 148.212 213.577 147.959 213.729 147.599L214.41 147.892C214.151 148.499 213.594 148.927 212.829 148.927ZM214.524 146.249V145.569H215.087V145.068L215.852 144.545V145.569H216.521V146.249H215.852V147.481C215.852 148.055 215.936 148.145 216.521 148.145V148.859H216.414C215.396 148.859 215.087 148.533 215.087 147.487V146.249H214.524Z" fill="#939393"/>
<path d="M225.674 148.859V144.753H226.54L228.318 147.549V144.753H229.083V148.859H228.267L226.439 145.974V148.859H225.674ZM231.138 148.927C230.187 148.927 229.434 148.162 229.434 147.217C229.434 146.255 230.187 145.501 231.138 145.501C232.083 145.501 232.842 146.255 232.842 147.217C232.842 148.162 232.083 148.927 231.138 148.927ZM231.138 148.212C231.678 148.212 232.094 147.762 232.094 147.217C232.094 146.66 231.678 146.216 231.138 146.216C230.592 146.216 230.182 146.66 230.182 147.217C230.182 147.762 230.592 148.212 231.138 148.212ZM234.01 148.859L232.756 145.569H233.549L234.398 147.886L235.231 145.569H236.012L234.775 148.859H234.01Z" fill="#939393"/>
<path d="M244.549 148.859V144.753H245.668C247.052 144.753 247.839 145.642 247.839 146.806C247.839 147.976 246.951 148.859 245.702 148.859H244.549ZM245.578 145.462H245.314V148.151H245.612C246.512 148.151 247.074 147.571 247.074 146.806C247.074 146.019 246.596 145.462 245.578 145.462ZM249.811 148.927C248.776 148.927 248.072 148.173 248.072 147.222C248.072 146.261 248.821 145.501 249.782 145.501C250.761 145.501 251.476 146.221 251.476 147.194V147.481H248.798C248.905 147.948 249.271 148.257 249.811 148.257C250.238 148.257 250.564 148.033 250.722 147.678L251.346 148.038C251.059 148.572 250.553 148.927 249.811 148.927ZM249.782 146.171C249.327 146.171 248.972 146.441 248.837 146.846H250.705C250.592 146.401 250.255 146.171 249.782 146.171ZM253.419 148.927C252.457 148.927 251.709 148.162 251.709 147.217C251.709 146.255 252.457 145.501 253.419 145.501C254.156 145.501 254.735 145.923 254.988 146.519L254.308 146.806C254.156 146.446 253.83 146.216 253.425 146.216C252.868 146.216 252.451 146.66 252.451 147.217C252.451 147.762 252.868 148.212 253.43 148.212C253.858 148.212 254.167 147.959 254.319 147.599L255 147.892C254.741 148.499 254.184 148.927 253.419 148.927Z" fill="#939393"/>
</g>
<defs>
<filter id="filter0_d_11_888" x="0.6875" y="0.515625" width="301.625" height="209.344" filterUnits="userSpaceOnUse" color-interpolation-filters="sRGB">
<feFlood flood-opacity="0" result="BackgroundImageFix"/>
<feColorMatrix in="SourceAlpha" type="matrix" values="0 0 0 0 0 0 0 0 0 0 0 0 0 0 0 0 0 0 127 0" result="hardAlpha"/>
<feOffset dx="4" dy="16"/>
<feGaussianBlur stdDeviation="15"/>
<feComposite in2="hardAlpha" operator="out"/>
<feColorMatrix type="matrix" values="0 0 0 0 0 0 0 0 0 0.388235 0 0 0 0 0.505882 0 0 0 0.5 0"/>
<feBlend mode="normal" in2="BackgroundImageFix" result="effect1_dropShadow_11_888"/>
<feBlend mode="normal" in="SourceGraphic" in2="effect1_dropShadow_11_888" result="shape"/>
</filter>
</defs>
</svg>
