<svg width="230" height="188" viewBox="0 0 230 188" fill="none" xmlns="http://www.w3.org/2000/svg">
<g filter="url(#filter0_d_11_827)">
<rect x="26.4879" y="14.7742" width="168.75" height="126.75" rx="11.25" fill="#00A8DC" shape-rendering="crispEdges"/>
<rect x="29.4879" y="17.7742" width="162.75" height="120.75" rx="10" fill="white"/>
<circle cx="57.9879" cy="46.2742" r="13.5" fill="#AEDB04"/>
<g clip-path="url(#clip0_11_827)">
<path d="M62.5848 45.1498C62.2068 45.2479 61.9525 45.4563 61.7158 45.6977C61.3496 46.0726 60.9716 46.4387 60.5985 46.808C60.5599 46.8482 60.5196 46.8832 60.4736 46.9287C60.105 46.5666 59.6599 46.4765 59.1677 46.483C58.1725 46.4958 57.1778 46.4898 56.1826 46.4858C55.668 46.4858 55.2322 46.6579 54.8717 47.0204C54.7053 47.1878 54.5373 47.3531 54.3575 47.5313C54.102 47.055 54.0007 46.5694 54.078 46.061C54.2025 45.2375 54.5686 44.5133 55.0304 43.8339C55.434 43.2393 55.9174 42.7119 56.4227 42.203C56.4856 42.1362 56.5264 42.052 56.5398 41.9616C56.5891 41.596 56.8629 41.3337 57.2355 41.3316C58.0376 41.3274 58.8396 41.3274 59.6416 41.3316C60.0277 41.3316 60.3072 41.6092 60.3382 41.9898C60.348 42.0618 60.3814 42.1287 60.4334 42.1801C61.0558 42.7964 61.638 43.4453 62.0827 44.2016C62.2601 44.5029 62.4115 44.8203 62.5848 45.1498Z" fill="white"/>
<path d="M58.3959 50.2343C58.4122 48.7257 59.7015 47.4839 61.2332 47.5012C62.7467 47.5176 63.9941 48.7571 63.9795 50.2299C63.964 51.8161 62.7211 53.0411 61.1482 53.021C59.6323 53.0016 58.3796 51.7332 58.3959 50.2343ZM60.8825 50.5235C60.7434 50.3819 60.6152 50.2468 60.4822 50.1172C60.3492 49.9877 60.2112 49.9869 60.1071 50.0951C60.0029 50.2033 60.0135 50.3321 60.1352 50.4552C60.3155 50.6381 60.4982 50.8188 60.6832 50.9974C60.8264 51.1362 60.9497 51.1366 61.0925 50.9974C61.3097 50.787 61.5233 50.5726 61.7381 50.3602C61.9139 50.1864 62.0921 50.0151 62.2638 49.8372C62.372 49.725 62.3679 49.5862 62.2658 49.4897C62.171 49.3996 62.0335 49.402 61.9241 49.4977C61.8834 49.5343 61.8427 49.575 61.8049 49.6136L60.8825 50.5235Z" fill="white"/>
<path d="M58.0581 51.2115C57.6668 51.265 57.2957 51.3181 56.9239 51.3619C56.8832 51.3668 56.8274 51.3293 56.7973 51.2951C56.7115 51.1974 56.6448 51.0819 56.5532 50.9906C55.7666 50.2064 54.9778 49.4248 54.1866 48.6457C54.1459 48.6054 54.1011 48.5745 54.0519 48.5342C54.0926 48.49 54.115 48.4598 54.1422 48.4329C54.4742 48.1014 54.8068 47.7702 55.1398 47.4392C55.2838 47.2905 55.4581 47.1738 55.6512 47.0969C55.8444 47.0201 56.0519 46.9848 56.2599 46.9935C57.2794 47.012 58.3002 46.9995 59.3202 46.9991C59.5708 46.9991 59.8003 47.0595 60.0017 47.218C59.7799 47.3415 59.5594 47.4501 59.3519 47.5828C58.9971 47.8104 58.6954 48.1102 58.467 48.4622C58.4485 48.4967 58.4201 48.5251 58.3854 48.5437C58.3506 48.5623 58.3111 48.5704 58.2717 48.5668C58.0028 48.5604 57.7339 48.5668 57.465 48.5668C57.2615 48.5668 57.148 48.6569 57.1509 48.8118C57.1537 48.9667 57.2628 49.0464 57.458 49.0472C57.681 49.0472 57.9056 49.0472 58.1497 49.0472C57.877 49.7385 57.8448 50.5 58.0581 51.2115Z" fill="white"/>
<path d="M56.4332 51.7236C56.3766 51.8262 56.3388 51.946 56.2607 52.0285C55.9824 52.3206 55.6911 52.603 55.4026 52.883C55.2061 53.0724 54.9441 53.0724 54.7517 52.883C53.8772 52.0207 53.0055 51.1572 52.1364 50.2922C51.9371 50.0935 51.9391 49.838 52.1385 49.6365C52.4149 49.3565 52.694 49.0791 52.9758 48.8042C53.1837 48.603 53.4697 48.603 53.6674 48.8013C54.5164 49.6437 55.3653 50.4863 56.2143 51.3289C56.3295 51.4328 56.4065 51.5717 56.4332 51.7236Z" fill="white"/>
<path d="M60.234 41.0038C59.9898 40.8682 59.7457 40.8457 59.4931 40.8473C58.7774 40.8525 58.0618 40.8417 57.3465 40.8537C57.1183 40.8574 56.8913 40.9121 56.6634 40.9439L56.661 40.9913C56.6484 40.9722 56.6379 40.9519 56.6297 40.9306C56.5422 40.5754 56.4531 40.2201 56.3697 39.8637C56.3217 39.6573 56.425 39.5346 56.6411 39.5322C56.9942 39.5278 57.3197 39.6276 57.6326 39.7833C57.9742 39.9569 58.3644 40.0135 58.742 39.9442C58.9088 39.914 59.0675 39.8408 59.2303 39.7885C59.4943 39.7036 59.7592 39.6155 60.024 39.5391C60.1034 39.5215 60.1853 39.5187 60.2657 39.5306C60.461 39.5495 60.5541 39.6614 60.5126 39.8484C60.4284 40.231 60.3304 40.6112 60.234 41.0038Z" fill="white"/>
<path d="M63.3044 47.7824C62.6534 47.2658 61.9378 47.0104 61.1139 47.0204C61.1235 46.9967 61.1357 46.9742 61.1505 46.9532C61.5012 46.6045 61.8462 46.25 62.2051 45.9097C62.3714 45.7555 62.584 45.6592 62.8107 45.6353C63.0374 45.6115 63.2657 45.6615 63.461 45.7778C63.8536 46.0067 64.0713 46.4834 63.9578 46.8973C63.9215 47.0275 63.8603 47.1496 63.7776 47.257C63.6352 47.4384 63.4696 47.6017 63.3044 47.7824Z" fill="white"/>
</g>
<circle opacity="0.3" cx="168.238" cy="46.2742" r="9" fill="white"/>
<path d="M168.238 44.0242C168.652 44.0242 168.988 43.6884 168.988 43.2742C168.988 42.86 168.652 42.5242 168.238 42.5242C167.824 42.5242 167.488 42.86 167.488 43.2742C167.488 43.6884 167.824 44.0242 168.238 44.0242Z" fill="black"/>
<path d="M168.238 47.0242C168.652 47.0242 168.988 46.6884 168.988 46.2742C168.988 45.86 168.652 45.5242 168.238 45.5242C167.824 45.5242 167.488 45.86 167.488 46.2742C167.488 46.6884 167.824 47.0242 168.238 47.0242Z" fill="black"/>
<path d="M168.238 50.0242C168.652 50.0242 168.988 49.6884 168.988 49.2742C168.988 48.86 168.652 48.5242 168.238 48.5242C167.824 48.5242 167.488 48.86 167.488 49.2742C167.488 49.6884 167.824 50.0242 168.238 50.0242Z" fill="black"/>
<rect x="44.4879" y="83.7742" width="8.25" height="132.75" rx="3.75" transform="rotate(-90 44.4879 83.7742)" fill="#C3C3C3"/>
<rect x="44.4879" y="95.7742" width="8.25" height="82.5" rx="3.75" transform="rotate(-90 44.4879 95.7742)" fill="#C3C3C3"/>
<path d="M48.5919 111.644H51.0579V123.524H48.0699V114.686C47.2599 115.424 46.2879 116.018 45.2619 116.198L44.9739 113.642C46.1979 113.498 47.9979 112.526 48.5919 111.644ZM58.194 123.704C54.882 123.704 53.262 121.634 53.262 117.584C53.262 113.534 54.882 111.464 58.194 111.464C61.506 111.464 63.126 113.534 63.126 117.584C63.126 121.634 61.506 123.704 58.194 123.704ZM58.194 121.292C59.508 121.292 60.066 120.248 60.066 117.584C60.066 114.92 59.508 113.876 58.194 113.876C56.88 113.876 56.322 114.92 56.322 117.584C56.322 120.248 56.88 121.292 58.194 121.292ZM69.778 123.704C66.466 123.704 64.846 121.634 64.846 117.584C64.846 113.534 66.466 111.464 69.778 111.464C73.09 111.464 74.71 113.534 74.71 117.584C74.71 121.634 73.09 123.704 69.778 123.704ZM69.778 121.292C71.092 121.292 71.65 120.248 71.65 117.584C71.65 114.92 71.092 113.876 69.778 113.876C68.464 113.876 67.906 114.92 67.906 117.584C67.906 120.248 68.464 121.292 69.778 121.292Z" fill="#00A8DC"/>
</g>
<defs>
<filter id="filter0_d_11_827" x="0.487885" y="0.774231" width="228.75" height="186.75" filterUnits="userSpaceOnUse" color-interpolation-filters="sRGB">
<feFlood flood-opacity="0" result="BackgroundImageFix"/>
<feColorMatrix in="SourceAlpha" type="matrix" values="0 0 0 0 0 0 0 0 0 0 0 0 0 0 0 0 0 0 127 0" result="hardAlpha"/>
<feOffset dx="4" dy="16"/>
<feGaussianBlur stdDeviation="15"/>
<feComposite in2="hardAlpha" operator="out"/>
<feColorMatrix type="matrix" values="0 0 0 0 0 0 0 0 0 0.388235 0 0 0 0 0.505882 0 0 0 0.5 0"/>
<feBlend mode="normal" in2="BackgroundImageFix" result="effect1_dropShadow_11_827"/>
<feBlend mode="normal" in="SourceGraphic" in2="effect1_dropShadow_11_827" result="shape"/>
</filter>
<clipPath id="clip0_11_827">
<rect width="13.5" height="13.5" fill="white" transform="translate(51.2379 39.5242)"/>
</clipPath>
</defs>
</svg>
